<svg xmlns="http://www.w3.org/2000/svg" xmlns:xlink="http://www.w3.org/1999/xlink" fill="none" version="1.1" width="24" height="24" viewBox="0 0 24 24"><defs><clipPath id="relay_svg_YQiSJ_"><path d="M0 0L24 0L24 24L0 24L0 0Z"/></clipPath></defs><g style="mix-blend-mode:pass-through;opacity: 1;" transform="matrix(1,0,0,1,0,0)"><g clip-path="url(#relay_svg_YQiSJ_)"><rect width="24" height="24" rx="0" display="none" fill="#ffffff" fill-opacity="1" style="mix-blend-mode:normal"/><g style="mix-blend-mode:pass-through;opacity: 1;" transform="matrix(1,0,0,1,0,0)"><g style="mix-blend-mode:pass-through;opacity: 1;" transform="matrix(1,0,0,1,0,0)"></g><g style="mix-blend-mode:pass-through;opacity: 1;" transform="matrix(-1,0,0,1,18.888999999999214,5.636000000000422)"><path d="M7.778 1.414L2.828 6.364L7.778 11.314L6.364 12.728L0 6.364L6.364 0L7.778 1.414ZM13.778 1.414L8.828 6.364L13.778 11.314L12.364 12.728L6 6.364L12.364 0L13.778 1.414Z" fill-rule="EVENODD" fill="#09111e" fill-opacity="1" style="mix-blend-mode:normal"/></g></g></g></g></svg>