<svg xmlns="http://www.w3.org/2000/svg" xmlns:xlink="http://www.w3.org/1999/xlink" fill="none" version="1.1" width="176" height="176" viewBox="0 0 176 176"><defs><clipPath id="relay_svg_v-A2FL"><path d="M0 0L176 0L176 176L0 176L0 0Z"/></clipPath></defs><g style="mix-blend-mode:pass-through;opacity: 1;" transform="matrix(1,0,0,1,0,0)"><g clip-path="url(#relay_svg_v-A2FL)"><g style="mix-blend-mode:pass-through;opacity: 1;" transform="matrix(1,0,0,1,4,4)"><path d="M1.5 165C2.328 165 3 165.672 3 166.5C3 167.328 2.328 168 1.5 168C0.672 168 0 167.328 0 166.5C0 165.672 0.672 165 1.5 165ZM12.5 165C13.328 165 14 165.672 14 166.5C14 167.328 13.328 168 12.5 168C11.672 168 11 167.328 11 166.5C11 165.672 11.672 165 12.5 165ZM23.5 165C24.328 165 25 165.672 25 166.5C25 167.328 24.328 168 23.5 168C22.672 168 22 167.328 22 166.5C22 165.672 22.672 165 23.5 165ZM34.5 165C35.328 165 36 165.672 36 166.5C36 167.328 35.328 168 34.5 168C33.672 168 33 167.328 33 166.5C33 165.672 33.672 165 34.5 165ZM45.5 165C46.328 165 47 165.672 47 166.5C47 167.328 46.328 168 45.5 168C44.672 168 44 167.328 44 166.5C44 165.672 44.672 165 45.5 165ZM56.5 165C57.328 165 58 165.672 58 166.5C58 167.328 57.328 168 56.5 168C55.672 168 55 167.328 55 166.5C55 165.672 55.672 165 56.5 165ZM67.5 165C68.328 165 69 165.672 69 166.5C69 167.328 68.328 168 67.5 168C66.672 168 66 167.328 66 166.5C66 165.672 66.672 165 67.5 165ZM78.5 165C79.328 165 80 165.672 80 166.5C80 167.328 79.328 168 78.5 168C77.672 168 77 167.328 77 166.5C77 165.672 77.672 165 78.5 165ZM89.5 165C90.328 165 91 165.672 91 166.5C91 167.328 90.328 168 89.5 168C88.672 168 88 167.328 88 166.5C88 165.672 88.672 165 89.5 165ZM100.5 165C101.328 165 102 165.672 102 166.5C102 167.328 101.328 168 100.5 168C99.672 168 99 167.328 99 166.5C99 165.672 99.672 165 100.5 165ZM111.5 165C112.328 165 113 165.672 113 166.5C113 167.328 112.328 168 111.5 168C110.672 168 110 167.328 110 166.5C110 165.672 110.672 165 111.5 165ZM122.5 165C123.328 165 124 165.672 124 166.5C124 167.328 123.328 168 122.5 168C121.672 168 121 167.328 121 166.5C121 165.672 121.672 165 122.5 165ZM133.5 165C134.328 165 135 165.672 135 166.5C135 167.328 134.328 168 133.5 168C132.672 168 132 167.328 132 166.5C132 165.672 132.672 165 133.5 165ZM144.5 165C145.328 165 146 165.672 146 166.5C146 167.328 145.328 168 144.5 168C143.672 168 143 167.328 143 166.5C143 165.672 143.672 165 144.5 165ZM155.5 165C156.328 165 157 165.672 157 166.5C157 167.328 156.328 168 155.5 168C154.672 168 154 167.328 154 166.5C154 165.672 154.672 165 155.5 165ZM166.5 165C167.328 165 168 165.672 168 166.5C168 167.328 167.328 168 166.5 168C165.672 168 165 167.328 165 166.5C165 165.672 165.672 165 166.5 165ZM1.5 154C2.328 154 3 154.672 3 155.5C3 156.328 2.328 157 1.5 157C0.672 157 0 156.328 0 155.5C0 154.672 0.672 154 1.5 154ZM12.5 154C13.328 154 14 154.672 14 155.5C14 156.328 13.328 157 12.5 157C11.672 157 11 156.328 11 155.5C11 154.672 11.672 154 12.5 154ZM23.5 154C24.328 154 25 154.672 25 155.5C25 156.328 24.328 157 23.5 157C22.672 157 22 156.328 22 155.5C22 154.672 22.672 154 23.5 154ZM34.5 154C35.328 154 36 154.672 36 155.5C36 156.328 35.328 157 34.5 157C33.672 157 33 156.328 33 155.5C33 154.672 33.672 154 34.5 154ZM45.5 154C46.328 154 47 154.672 47 155.5C47 156.328 46.328 157 45.5 157C44.672 157 44 156.328 44 155.5C44 154.672 44.672 154 45.5 154ZM56.5 154C57.328 154 58 154.672 58 155.5C58 156.328 57.328 157 56.5 157C55.672 157 55 156.328 55 155.5C55 154.672 55.672 154 56.5 154ZM67.5 154C68.328 154 69 154.672 69 155.5C69 156.328 68.328 157 67.5 157C66.672 157 66 156.328 66 155.5C66 154.672 66.672 154 67.5 154ZM78.5 154C79.328 154 80 154.672 80 155.5C80 156.328 79.328 157 78.5 157C77.672 157 77 156.328 77 155.5C77 154.672 77.672 154 78.5 154ZM89.5 154C90.328 154 91 154.672 91 155.5C91 156.328 90.328 157 89.5 157C88.672 157 88 156.328 88 155.5C88 154.672 88.672 154 89.5 154ZM100.5 154C101.328 154 102 154.672 102 155.5C102 156.328 101.328 157 100.5 157C99.672 157 99 156.328 99 155.5C99 154.672 99.672 154 100.5 154ZM111.5 154C112.328 154 113 154.672 113 155.5C113 156.328 112.328 157 111.5 157C110.672 157 110 156.328 110 155.5C110 154.672 110.672 154 111.5 154ZM122.5 154C123.328 154 124 154.672 124 155.5C124 156.328 123.328 157 122.5 157C121.672 157 121 156.328 121 155.5C121 154.672 121.672 154 122.5 154ZM133.5 154C134.328 154 135 154.672 135 155.5C135 156.328 134.328 157 133.5 157C132.672 157 132 156.328 132 155.5C132 154.672 132.672 154 133.5 154ZM144.5 154C145.328 154 146 154.672 146 155.5C146 156.328 145.328 157 144.5 157C143.672 157 143 156.328 143 155.5C143 154.672 143.672 154 144.5 154ZM155.5 154C156.328 154 157 154.672 157 155.5C157 156.328 156.328 157 155.5 157C154.672 157 154 156.328 154 155.5C154 154.672 154.672 154 155.5 154ZM166.5 154C167.328 154 168 154.672 168 155.5C168 156.328 167.328 157 166.5 157C165.672 157 165 156.328 165 155.5C165 154.672 165.672 154 166.5 154ZM1.5 143C2.328 143 3 143.672 3 144.5C3 145.328 2.328 146 1.5 146C0.672 146 0 145.328 0 144.5C0 143.672 0.672 143 1.5 143ZM12.5 143C13.328 143 14 143.672 14 144.5C14 145.328 13.328 146 12.5 146C11.672 146 11 145.328 11 144.5C11 143.672 11.672 143 12.5 143ZM23.5 143C24.328 143 25 143.672 25 144.5C25 145.328 24.328 146 23.5 146C22.672 146 22 145.328 22 144.5C22 143.672 22.672 143 23.5 143ZM34.5 143C35.328 143 36 143.672 36 144.5C36 145.328 35.328 146 34.5 146C33.672 146 33 145.328 33 144.5C33 143.672 33.672 143 34.5 143ZM45.5 143C46.328 143 47 143.672 47 144.5C47 145.328 46.328 146 45.5 146C44.672 146 44 145.328 44 144.5C44 143.672 44.672 143 45.5 143ZM56.5 143C57.328 143 58 143.672 58 144.5C58 145.328 57.328 146 56.5 146C55.672 146 55 145.328 55 144.5C55 143.672 55.672 143 56.5 143ZM67.5 143C68.328 143 69 143.672 69 144.5C69 145.328 68.328 146 67.5 146C66.672 146 66 145.328 66 144.5C66 143.672 66.672 143 67.5 143ZM78.5 143C79.328 143 80 143.672 80 144.5C80 145.328 79.328 146 78.5 146C77.672 146 77 145.328 77 144.5C77 143.672 77.672 143 78.5 143ZM89.5 143C90.328 143 91 143.672 91 144.5C91 145.328 90.328 146 89.5 146C88.672 146 88 145.328 88 144.5C88 143.672 88.672 143 89.5 143ZM100.5 143C101.328 143 102 143.672 102 144.5C102 145.328 101.328 146 100.5 146C99.672 146 99 145.328 99 144.5C99 143.672 99.672 143 100.5 143ZM111.5 143C112.328 143 113 143.672 113 144.5C113 145.328 112.328 146 111.5 146C110.672 146 110 145.328 110 144.5C110 143.672 110.672 143 111.5 143ZM122.5 143C123.328 143 124 143.672 124 144.5C124 145.328 123.328 146 122.5 146C121.672 146 121 145.328 121 144.5C121 143.672 121.672 143 122.5 143ZM133.5 143C134.328 143 135 143.672 135 144.5C135 145.328 134.328 146 133.5 146C132.672 146 132 145.328 132 144.5C132 143.672 132.672 143 133.5 143ZM144.5 143C145.328 143 146 143.672 146 144.5C146 145.328 145.328 146 144.5 146C143.672 146 143 145.328 143 144.5C143 143.672 143.672 143 144.5 143ZM155.5 143C156.328 143 157 143.672 157 144.5C157 145.328 156.328 146 155.5 146C154.672 146 154 145.328 154 144.5C154 143.672 154.672 143 155.5 143ZM166.5 143C167.328 143 168 143.672 168 144.5C168 145.328 167.328 146 166.5 146C165.672 146 165 145.328 165 144.5C165 143.672 165.672 143 166.5 143ZM1.5 132C2.328 132 3 132.672 3 133.5C3 134.328 2.328 135 1.5 135C0.672 135 0 134.328 0 133.5C0 132.672 0.672 132 1.5 132ZM12.5 132C13.328 132 14 132.672 14 133.5C14 134.328 13.328 135 12.5 135C11.672 135 11 134.328 11 133.5C11 132.672 11.672 132 12.5 132ZM23.5 132C24.328 132 25 132.672 25 133.5C25 134.328 24.328 135 23.5 135C22.672 135 22 134.328 22 133.5C22 132.672 22.672 132 23.5 132ZM34.5 132C35.328 132 36 132.672 36 133.5C36 134.328 35.328 135 34.5 135C33.672 135 33 134.328 33 133.5C33 132.672 33.672 132 34.5 132ZM45.5 132C46.328 132 47 132.672 47 133.5C47 134.328 46.328 135 45.5 135C44.672 135 44 134.328 44 133.5C44 132.672 44.672 132 45.5 132ZM56.5 132C57.328 132 58 132.672 58 133.5C58 134.328 57.328 135 56.5 135C55.672 135 55 134.328 55 133.5C55 132.672 55.672 132 56.5 132ZM67.5 132C68.328 132 69 132.672 69 133.5C69 134.328 68.328 135 67.5 135C66.672 135 66 134.328 66 133.5C66 132.672 66.672 132 67.5 132ZM78.5 132C79.328 132 80 132.672 80 133.5C80 134.328 79.328 135 78.5 135C77.672 135 77 134.328 77 133.5C77 132.672 77.672 132 78.5 132ZM89.5 132C90.328 132 91 132.672 91 133.5C91 134.328 90.328 135 89.5 135C88.672 135 88 134.328 88 133.5C88 132.672 88.672 132 89.5 132ZM100.5 132C101.328 132 102 132.672 102 133.5C102 134.328 101.328 135 100.5 135C99.672 135 99 134.328 99 133.5C99 132.672 99.672 132 100.5 132ZM111.5 132C112.328 132 113 132.672 113 133.5C113 134.328 112.328 135 111.5 135C110.672 135 110 134.328 110 133.5C110 132.672 110.672 132 111.5 132ZM122.5 132C123.328 132 124 132.672 124 133.5C124 134.328 123.328 135 122.5 135C121.672 135 121 134.328 121 133.5C121 132.672 121.672 132 122.5 132ZM133.5 132C134.328 132 135 132.672 135 133.5C135 134.328 134.328 135 133.5 135C132.672 135 132 134.328 132 133.5C132 132.672 132.672 132 133.5 132ZM144.5 132C145.328 132 146 132.672 146 133.5C146 134.328 145.328 135 144.5 135C143.672 135 143 134.328 143 133.5C143 132.672 143.672 132 144.5 132ZM155.5 132C156.328 132 157 132.672 157 133.5C157 134.328 156.328 135 155.5 135C154.672 135 154 134.328 154 133.5C154 132.672 154.672 132 155.5 132ZM166.5 132C167.328 132 168 132.672 168 133.5C168 134.328 167.328 135 166.5 135C165.672 135 165 134.328 165 133.5C165 132.672 165.672 132 166.5 132ZM1.5 121C2.328 121 3 121.672 3 122.5C3 123.328 2.328 124 1.5 124C0.672 124 0 123.328 0 122.5C0 121.672 0.672 121 1.5 121ZM12.5 121C13.328 121 14 121.672 14 122.5C14 123.328 13.328 124 12.5 124C11.672 124 11 123.328 11 122.5C11 121.672 11.672 121 12.5 121ZM23.5 121C24.328 121 25 121.672 25 122.5C25 123.328 24.328 124 23.5 124C22.672 124 22 123.328 22 122.5C22 121.672 22.672 121 23.5 121ZM34.5 121C35.328 121 36 121.672 36 122.5C36 123.328 35.328 124 34.5 124C33.672 124 33 123.328 33 122.5C33 121.672 33.672 121 34.5 121ZM45.5 121C46.328 121 47 121.672 47 122.5C47 123.328 46.328 124 45.5 124C44.672 124 44 123.328 44 122.5C44 121.672 44.672 121 45.5 121ZM56.5 121C57.328 121 58 121.672 58 122.5C58 123.328 57.328 124 56.5 124C55.672 124 55 123.328 55 122.5C55 121.672 55.672 121 56.5 121ZM67.5 121C68.328 121 69 121.672 69 122.5C69 123.328 68.328 124 67.5 124C66.672 124 66 123.328 66 122.5C66 121.672 66.672 121 67.5 121ZM78.5 121C79.328 121 80 121.672 80 122.5C80 123.328 79.328 124 78.5 124C77.672 124 77 123.328 77 122.5C77 121.672 77.672 121 78.5 121ZM89.5 121C90.328 121 91 121.672 91 122.5C91 123.328 90.328 124 89.5 124C88.672 124 88 123.328 88 122.5C88 121.672 88.672 121 89.5 121ZM100.5 121C101.328 121 102 121.672 102 122.5C102 123.328 101.328 124 100.5 124C99.672 124 99 123.328 99 122.5C99 121.672 99.672 121 100.5 121ZM111.5 121C112.328 121 113 121.672 113 122.5C113 123.328 112.328 124 111.5 124C110.672 124 110 123.328 110 122.5C110 121.672 110.672 121 111.5 121ZM122.5 121C123.328 121 124 121.672 124 122.5C124 123.328 123.328 124 122.5 124C121.672 124 121 123.328 121 122.5C121 121.672 121.672 121 122.5 121ZM133.5 121C134.328 121 135 121.672 135 122.5C135 123.328 134.328 124 133.5 124C132.672 124 132 123.328 132 122.5C132 121.672 132.672 121 133.5 121ZM144.5 121C145.328 121 146 121.672 146 122.5C146 123.328 145.328 124 144.5 124C143.672 124 143 123.328 143 122.5C143 121.672 143.672 121 144.5 121ZM155.5 121C156.328 121 157 121.672 157 122.5C157 123.328 156.328 124 155.5 124C154.672 124 154 123.328 154 122.5C154 121.672 154.672 121 155.5 121ZM166.5 121C167.328 121 168 121.672 168 122.5C168 123.328 167.328 124 166.5 124C165.672 124 165 123.328 165 122.5C165 121.672 165.672 121 166.5 121ZM1.5 110C2.328 110 3 110.672 3 111.5C3 112.328 2.328 113 1.5 113C0.672 113 0 112.328 0 111.5C0 110.672 0.672 110 1.5 110ZM12.5 110C13.328 110 14 110.672 14 111.5C14 112.328 13.328 113 12.5 113C11.672 113 11 112.328 11 111.5C11 110.672 11.672 110 12.5 110ZM23.5 110C24.328 110 25 110.672 25 111.5C25 112.328 24.328 113 23.5 113C22.672 113 22 112.328 22 111.5C22 110.672 22.672 110 23.5 110ZM34.5 110C35.328 110 36 110.672 36 111.5C36 112.328 35.328 113 34.5 113C33.672 113 33 112.328 33 111.5C33 110.672 33.672 110 34.5 110ZM45.5 110C46.328 110 47 110.672 47 111.5C47 112.328 46.328 113 45.5 113C44.672 113 44 112.328 44 111.5C44 110.672 44.672 110 45.5 110ZM56.5 110C57.328 110 58 110.672 58 111.5C58 112.328 57.328 113 56.5 113C55.672 113 55 112.328 55 111.5C55 110.672 55.672 110 56.5 110ZM67.5 110C68.328 110 69 110.672 69 111.5C69 112.328 68.328 113 67.5 113C66.672 113 66 112.328 66 111.5C66 110.672 66.672 110 67.5 110ZM78.5 110C79.328 110 80 110.672 80 111.5C80 112.328 79.328 113 78.5 113C77.672 113 77 112.328 77 111.5C77 110.672 77.672 110 78.5 110ZM89.5 110C90.328 110 91 110.672 91 111.5C91 112.328 90.328 113 89.5 113C88.672 113 88 112.328 88 111.5C88 110.672 88.672 110 89.5 110ZM100.5 110C101.328 110 102 110.672 102 111.5C102 112.328 101.328 113 100.5 113C99.672 113 99 112.328 99 111.5C99 110.672 99.672 110 100.5 110ZM111.5 110C112.328 110 113 110.672 113 111.5C113 112.328 112.328 113 111.5 113C110.672 113 110 112.328 110 111.5C110 110.672 110.672 110 111.5 110ZM122.5 110C123.328 110 124 110.672 124 111.5C124 112.328 123.328 113 122.5 113C121.672 113 121 112.328 121 111.5C121 110.672 121.672 110 122.5 110ZM133.5 110C134.328 110 135 110.672 135 111.5C135 112.328 134.328 113 133.5 113C132.672 113 132 112.328 132 111.5C132 110.672 132.672 110 133.5 110ZM144.5 110C145.328 110 146 110.672 146 111.5C146 112.328 145.328 113 144.5 113C143.672 113 143 112.328 143 111.5C143 110.672 143.672 110 144.5 110ZM155.5 110C156.328 110 157 110.672 157 111.5C157 112.328 156.328 113 155.5 113C154.672 113 154 112.328 154 111.5C154 110.672 154.672 110 155.5 110ZM166.5 110C167.328 110 168 110.672 168 111.5C168 112.328 167.328 113 166.5 113C165.672 113 165 112.328 165 111.5C165 110.672 165.672 110 166.5 110ZM1.5 99C2.328 99 3 99.672 3 100.5C3 101.328 2.328 102 1.5 102C0.672 102 0 101.328 0 100.5C0 99.672 0.672 99 1.5 99ZM12.5 99C13.328 99 14 99.672 14 100.5C14 101.328 13.328 102 12.5 102C11.672 102 11 101.328 11 100.5C11 99.672 11.672 99 12.5 99ZM23.5 99C24.328 99 25 99.672 25 100.5C25 101.328 24.328 102 23.5 102C22.672 102 22 101.328 22 100.5C22 99.672 22.672 99 23.5 99ZM34.5 99C35.328 99 36 99.672 36 100.5C36 101.328 35.328 102 34.5 102C33.672 102 33 101.328 33 100.5C33 99.672 33.672 99 34.5 99ZM45.5 99C46.328 99 47 99.672 47 100.5C47 101.328 46.328 102 45.5 102C44.672 102 44 101.328 44 100.5C44 99.672 44.672 99 45.5 99ZM56.5 99C57.328 99 58 99.672 58 100.5C58 101.328 57.328 102 56.5 102C55.672 102 55 101.328 55 100.5C55 99.672 55.672 99 56.5 99ZM67.5 99C68.328 99 69 99.672 69 100.5C69 101.328 68.328 102 67.5 102C66.672 102 66 101.328 66 100.5C66 99.672 66.672 99 67.5 99ZM78.5 99C79.328 99 80 99.672 80 100.5C80 101.328 79.328 102 78.5 102C77.672 102 77 101.328 77 100.5C77 99.672 77.672 99 78.5 99ZM89.5 99C90.328 99 91 99.672 91 100.5C91 101.328 90.328 102 89.5 102C88.672 102 88 101.328 88 100.5C88 99.672 88.672 99 89.5 99ZM100.5 99C101.328 99 102 99.672 102 100.5C102 101.328 101.328 102 100.5 102C99.672 102 99 101.328 99 100.5C99 99.672 99.672 99 100.5 99ZM111.5 99C112.328 99 113 99.672 113 100.5C113 101.328 112.328 102 111.5 102C110.672 102 110 101.328 110 100.5C110 99.672 110.672 99 111.5 99ZM122.5 99C123.328 99 124 99.672 124 100.5C124 101.328 123.328 102 122.5 102C121.672 102 121 101.328 121 100.5C121 99.672 121.672 99 122.5 99ZM133.5 99C134.328 99 135 99.672 135 100.5C135 101.328 134.328 102 133.5 102C132.672 102 132 101.328 132 100.5C132 99.672 132.672 99 133.5 99ZM144.5 99C145.328 99 146 99.672 146 100.5C146 101.328 145.328 102 144.5 102C143.672 102 143 101.328 143 100.5C143 99.672 143.672 99 144.5 99ZM155.5 99C156.328 99 157 99.672 157 100.5C157 101.328 156.328 102 155.5 102C154.672 102 154 101.328 154 100.5C154 99.672 154.672 99 155.5 99ZM166.5 99C167.328 99 168 99.672 168 100.5C168 101.328 167.328 102 166.5 102C165.672 102 165 101.328 165 100.5C165 99.672 165.672 99 166.5 99ZM1.5 88C2.328 88 3 88.672 3 89.5C3 90.328 2.328 91 1.5 91C0.672 91 0 90.328 0 89.5C0 88.672 0.672 88 1.5 88ZM12.5 88C13.328 88 14 88.672 14 89.5C14 90.328 13.328 91 12.5 91C11.672 91 11 90.328 11 89.5C11 88.672 11.672 88 12.5 88ZM23.5 88C24.328 88 25 88.672 25 89.5C25 90.328 24.328 91 23.5 91C22.672 91 22 90.328 22 89.5C22 88.672 22.672 88 23.5 88ZM34.5 88C35.328 88 36 88.672 36 89.5C36 90.328 35.328 91 34.5 91C33.672 91 33 90.328 33 89.5C33 88.672 33.672 88 34.5 88ZM45.5 88C46.328 88 47 88.672 47 89.5C47 90.328 46.328 91 45.5 91C44.672 91 44 90.328 44 89.5C44 88.672 44.672 88 45.5 88ZM56.5 88C57.328 88 58 88.672 58 89.5C58 90.328 57.328 91 56.5 91C55.672 91 55 90.328 55 89.5C55 88.672 55.672 88 56.5 88ZM67.5 88C68.328 88 69 88.672 69 89.5C69 90.328 68.328 91 67.5 91C66.672 91 66 90.328 66 89.5C66 88.672 66.672 88 67.5 88ZM78.5 88C79.328 88 80 88.672 80 89.5C80 90.328 79.328 91 78.5 91C77.672 91 77 90.328 77 89.5C77 88.672 77.672 88 78.5 88ZM89.5 88C90.328 88 91 88.672 91 89.5C91 90.328 90.328 91 89.5 91C88.672 91 88 90.328 88 89.5C88 88.672 88.672 88 89.5 88ZM100.5 88C101.328 88 102 88.672 102 89.5C102 90.328 101.328 91 100.5 91C99.672 91 99 90.328 99 89.5C99 88.672 99.672 88 100.5 88ZM111.5 88C112.328 88 113 88.672 113 89.5C113 90.328 112.328 91 111.5 91C110.672 91 110 90.328 110 89.5C110 88.672 110.672 88 111.5 88ZM122.5 88C123.328 88 124 88.672 124 89.5C124 90.328 123.328 91 122.5 91C121.672 91 121 90.328 121 89.5C121 88.672 121.672 88 122.5 88ZM133.5 88C134.328 88 135 88.672 135 89.5C135 90.328 134.328 91 133.5 91C132.672 91 132 90.328 132 89.5C132 88.672 132.672 88 133.5 88ZM144.5 88C145.328 88 146 88.672 146 89.5C146 90.328 145.328 91 144.5 91C143.672 91 143 90.328 143 89.5C143 88.672 143.672 88 144.5 88ZM155.5 88C156.328 88 157 88.672 157 89.5C157 90.328 156.328 91 155.5 91C154.672 91 154 90.328 154 89.5C154 88.672 154.672 88 155.5 88ZM166.5 88C167.328 88 168 88.672 168 89.5C168 90.328 167.328 91 166.5 91C165.672 91 165 90.328 165 89.5C165 88.672 165.672 88 166.5 88ZM1.5 77C2.328 77 3 77.672 3 78.5C3 79.328 2.328 80 1.5 80C0.672 80 0 79.328 0 78.5C0 77.672 0.672 77 1.5 77ZM12.5 77C13.328 77 14 77.672 14 78.5C14 79.328 13.328 80 12.5 80C11.672 80 11 79.328 11 78.5C11 77.672 11.672 77 12.5 77ZM23.5 77C24.328 77 25 77.672 25 78.5C25 79.328 24.328 80 23.5 80C22.672 80 22 79.328 22 78.5C22 77.672 22.672 77 23.5 77ZM34.5 77C35.328 77 36 77.672 36 78.5C36 79.328 35.328 80 34.5 80C33.672 80 33 79.328 33 78.5C33 77.672 33.672 77 34.5 77ZM45.5 77C46.328 77 47 77.672 47 78.5C47 79.328 46.328 80 45.5 80C44.672 80 44 79.328 44 78.5C44 77.672 44.672 77 45.5 77ZM56.5 77C57.328 77 58 77.672 58 78.5C58 79.328 57.328 80 56.5 80C55.672 80 55 79.328 55 78.5C55 77.672 55.672 77 56.5 77ZM67.5 77C68.328 77 69 77.672 69 78.5C69 79.328 68.328 80 67.5 80C66.672 80 66 79.328 66 78.5C66 77.672 66.672 77 67.5 77ZM78.5 77C79.328 77 80 77.672 80 78.5C80 79.328 79.328 80 78.5 80C77.672 80 77 79.328 77 78.5C77 77.672 77.672 77 78.5 77ZM89.5 77C90.328 77 91 77.672 91 78.5C91 79.328 90.328 80 89.5 80C88.672 80 88 79.328 88 78.5C88 77.672 88.672 77 89.5 77ZM100.5 77C101.328 77 102 77.672 102 78.5C102 79.328 101.328 80 100.5 80C99.672 80 99 79.328 99 78.5C99 77.672 99.672 77 100.5 77ZM111.5 77C112.328 77 113 77.672 113 78.5C113 79.328 112.328 80 111.5 80C110.672 80 110 79.328 110 78.5C110 77.672 110.672 77 111.5 77ZM122.5 77C123.328 77 124 77.672 124 78.5C124 79.328 123.328 80 122.5 80C121.672 80 121 79.328 121 78.5C121 77.672 121.672 77 122.5 77ZM133.5 77C134.328 77 135 77.672 135 78.5C135 79.328 134.328 80 133.5 80C132.672 80 132 79.328 132 78.5C132 77.672 132.672 77 133.5 77ZM144.5 77C145.328 77 146 77.672 146 78.5C146 79.328 145.328 80 144.5 80C143.672 80 143 79.328 143 78.5C143 77.672 143.672 77 144.5 77ZM155.5 77C156.328 77 157 77.672 157 78.5C157 79.328 156.328 80 155.5 80C154.672 80 154 79.328 154 78.5C154 77.672 154.672 77 155.5 77ZM166.5 77C167.328 77 168 77.672 168 78.5C168 79.328 167.328 80 166.5 80C165.672 80 165 79.328 165 78.5C165 77.672 165.672 77 166.5 77ZM1.5 66C2.328 66 3 66.672 3 67.5C3 68.328 2.328 69 1.5 69C0.672 69 0 68.328 0 67.5C0 66.672 0.672 66 1.5 66ZM12.5 66C13.328 66 14 66.672 14 67.5C14 68.328 13.328 69 12.5 69C11.672 69 11 68.328 11 67.5C11 66.672 11.672 66 12.5 66ZM23.5 66C24.328 66 25 66.672 25 67.5C25 68.328 24.328 69 23.5 69C22.672 69 22 68.328 22 67.5C22 66.672 22.672 66 23.5 66ZM34.5 66C35.328 66 36 66.672 36 67.5C36 68.328 35.328 69 34.5 69C33.672 69 33 68.328 33 67.5C33 66.672 33.672 66 34.5 66ZM45.5 66C46.328 66 47 66.672 47 67.5C47 68.328 46.328 69 45.5 69C44.672 69 44 68.328 44 67.5C44 66.672 44.672 66 45.5 66ZM56.5 66C57.328 66 58 66.672 58 67.5C58 68.328 57.328 69 56.5 69C55.672 69 55 68.328 55 67.5C55 66.672 55.672 66 56.5 66ZM67.5 66C68.328 66 69 66.672 69 67.5C69 68.328 68.328 69 67.5 69C66.672 69 66 68.328 66 67.5C66 66.672 66.672 66 67.5 66ZM78.5 66C79.328 66 80 66.672 80 67.5C80 68.328 79.328 69 78.5 69C77.672 69 77 68.328 77 67.5C77 66.672 77.672 66 78.5 66ZM89.5 66C90.328 66 91 66.672 91 67.5C91 68.328 90.328 69 89.5 69C88.672 69 88 68.328 88 67.5C88 66.672 88.672 66 89.5 66ZM100.5 66C101.328 66 102 66.672 102 67.5C102 68.328 101.328 69 100.5 69C99.672 69 99 68.328 99 67.5C99 66.672 99.672 66 100.5 66ZM111.5 66C112.328 66 113 66.672 113 67.5C113 68.328 112.328 69 111.5 69C110.672 69 110 68.328 110 67.5C110 66.672 110.672 66 111.5 66ZM122.5 66C123.328 66 124 66.672 124 67.5C124 68.328 123.328 69 122.5 69C121.672 69 121 68.328 121 67.5C121 66.672 121.672 66 122.5 66ZM133.5 66C134.328 66 135 66.672 135 67.5C135 68.328 134.328 69 133.5 69C132.672 69 132 68.328 132 67.5C132 66.672 132.672 66 133.5 66ZM144.5 66C145.328 66 146 66.672 146 67.5C146 68.328 145.328 69 144.5 69C143.672 69 143 68.328 143 67.5C143 66.672 143.672 66 144.5 66ZM155.5 66C156.328 66 157 66.672 157 67.5C157 68.328 156.328 69 155.5 69C154.672 69 154 68.328 154 67.5C154 66.672 154.672 66 155.5 66ZM166.5 66C167.328 66 168 66.672 168 67.5C168 68.328 167.328 69 166.5 69C165.672 69 165 68.328 165 67.5C165 66.672 165.672 66 166.5 66ZM1.5 55C2.328 55 3 55.672 3 56.5C3 57.328 2.328 58 1.5 58C0.672 58 0 57.328 0 56.5C0 55.672 0.672 55 1.5 55ZM12.5 55C13.328 55 14 55.672 14 56.5C14 57.328 13.328 58 12.5 58C11.672 58 11 57.328 11 56.5C11 55.672 11.672 55 12.5 55ZM23.5 55C24.328 55 25 55.672 25 56.5C25 57.328 24.328 58 23.5 58C22.672 58 22 57.328 22 56.5C22 55.672 22.672 55 23.5 55ZM34.5 55C35.328 55 36 55.672 36 56.5C36 57.328 35.328 58 34.5 58C33.672 58 33 57.328 33 56.5C33 55.672 33.672 55 34.5 55ZM45.5 55C46.328 55 47 55.672 47 56.5C47 57.328 46.328 58 45.5 58C44.672 58 44 57.328 44 56.5C44 55.672 44.672 55 45.5 55ZM56.5 55C57.328 55 58 55.672 58 56.5C58 57.328 57.328 58 56.5 58C55.672 58 55 57.328 55 56.5C55 55.672 55.672 55 56.5 55ZM67.5 55C68.328 55 69 55.672 69 56.5C69 57.328 68.328 58 67.5 58C66.672 58 66 57.328 66 56.5C66 55.672 66.672 55 67.5 55ZM78.5 55C79.328 55 80 55.672 80 56.5C80 57.328 79.328 58 78.5 58C77.672 58 77 57.328 77 56.5C77 55.672 77.672 55 78.5 55ZM89.5 55C90.328 55 91 55.672 91 56.5C91 57.328 90.328 58 89.5 58C88.672 58 88 57.328 88 56.5C88 55.672 88.672 55 89.5 55ZM100.5 55C101.328 55 102 55.672 102 56.5C102 57.328 101.328 58 100.5 58C99.672 58 99 57.328 99 56.5C99 55.672 99.672 55 100.5 55ZM111.5 55C112.328 55 113 55.672 113 56.5C113 57.328 112.328 58 111.5 58C110.672 58 110 57.328 110 56.5C110 55.672 110.672 55 111.5 55ZM122.5 55C123.328 55 124 55.672 124 56.5C124 57.328 123.328 58 122.5 58C121.672 58 121 57.328 121 56.5C121 55.672 121.672 55 122.5 55ZM133.5 55C134.328 55 135 55.672 135 56.5C135 57.328 134.328 58 133.5 58C132.672 58 132 57.328 132 56.5C132 55.672 132.672 55 133.5 55ZM144.5 55C145.328 55 146 55.672 146 56.5C146 57.328 145.328 58 144.5 58C143.672 58 143 57.328 143 56.5C143 55.672 143.672 55 144.5 55ZM155.5 55C156.328 55 157 55.672 157 56.5C157 57.328 156.328 58 155.5 58C154.672 58 154 57.328 154 56.5C154 55.672 154.672 55 155.5 55ZM166.5 55C167.328 55 168 55.672 168 56.5C168 57.328 167.328 58 166.5 58C165.672 58 165 57.328 165 56.5C165 55.672 165.672 55 166.5 55ZM1.5 44C2.328 44 3 44.672 3 45.5C3 46.328 2.328 47 1.5 47C0.672 47 0 46.328 0 45.5C0 44.672 0.672 44 1.5 44ZM12.5 44C13.328 44 14 44.672 14 45.5C14 46.328 13.328 47 12.5 47C11.672 47 11 46.328 11 45.5C11 44.672 11.672 44 12.5 44ZM23.5 44C24.328 44 25 44.672 25 45.5C25 46.328 24.328 47 23.5 47C22.672 47 22 46.328 22 45.5C22 44.672 22.672 44 23.5 44ZM34.5 44C35.328 44 36 44.672 36 45.5C36 46.328 35.328 47 34.5 47C33.672 47 33 46.328 33 45.5C33 44.672 33.672 44 34.5 44ZM45.5 44C46.328 44 47 44.672 47 45.5C47 46.328 46.328 47 45.5 47C44.672 47 44 46.328 44 45.5C44 44.672 44.672 44 45.5 44ZM56.5 44C57.328 44 58 44.672 58 45.5C58 46.328 57.328 47 56.5 47C55.672 47 55 46.328 55 45.5C55 44.672 55.672 44 56.5 44ZM67.5 44C68.328 44 69 44.672 69 45.5C69 46.328 68.328 47 67.5 47C66.672 47 66 46.328 66 45.5C66 44.672 66.672 44 67.5 44ZM78.5 44C79.328 44 80 44.672 80 45.5C80 46.328 79.328 47 78.5 47C77.672 47 77 46.328 77 45.5C77 44.672 77.672 44 78.5 44ZM89.5 44C90.328 44 91 44.672 91 45.5C91 46.328 90.328 47 89.5 47C88.672 47 88 46.328 88 45.5C88 44.672 88.672 44 89.5 44ZM100.5 44C101.328 44 102 44.672 102 45.5C102 46.328 101.328 47 100.5 47C99.672 47 99 46.328 99 45.5C99 44.672 99.672 44 100.5 44ZM111.5 44C112.328 44 113 44.672 113 45.5C113 46.328 112.328 47 111.5 47C110.672 47 110 46.328 110 45.5C110 44.672 110.672 44 111.5 44ZM122.5 44C123.328 44 124 44.672 124 45.5C124 46.328 123.328 47 122.5 47C121.672 47 121 46.328 121 45.5C121 44.672 121.672 44 122.5 44ZM133.5 44C134.328 44 135 44.672 135 45.5C135 46.328 134.328 47 133.5 47C132.672 47 132 46.328 132 45.5C132 44.672 132.672 44 133.5 44ZM144.5 44C145.328 44 146 44.672 146 45.5C146 46.328 145.328 47 144.5 47C143.672 47 143 46.328 143 45.5C143 44.672 143.672 44 144.5 44ZM155.5 44C156.328 44 157 44.672 157 45.5C157 46.328 156.328 47 155.5 47C154.672 47 154 46.328 154 45.5C154 44.672 154.672 44 155.5 44ZM166.5 44C167.328 44 168 44.672 168 45.5C168 46.328 167.328 47 166.5 47C165.672 47 165 46.328 165 45.5C165 44.672 165.672 44 166.5 44ZM1.5 33C2.328 33 3 33.672 3 34.5C3 35.328 2.328 36 1.5 36C0.672 36 0 35.328 0 34.5C0 33.672 0.672 33 1.5 33ZM12.5 33C13.328 33 14 33.672 14 34.5C14 35.328 13.328 36 12.5 36C11.672 36 11 35.328 11 34.5C11 33.672 11.672 33 12.5 33ZM23.5 33C24.328 33 25 33.672 25 34.5C25 35.328 24.328 36 23.5 36C22.672 36 22 35.328 22 34.5C22 33.672 22.672 33 23.5 33ZM34.5 33C35.328 33 36 33.672 36 34.5C36 35.328 35.328 36 34.5 36C33.672 36 33 35.328 33 34.5C33 33.672 33.672 33 34.5 33ZM45.5 33C46.328 33 47 33.672 47 34.5C47 35.328 46.328 36 45.5 36C44.672 36 44 35.328 44 34.5C44 33.672 44.672 33 45.5 33ZM56.5 33C57.328 33 58 33.672 58 34.5C58 35.328 57.328 36 56.5 36C55.672 36 55 35.328 55 34.5C55 33.672 55.672 33 56.5 33ZM67.5 33C68.328 33 69 33.672 69 34.5C69 35.328 68.328 36 67.5 36C66.672 36 66 35.328 66 34.5C66 33.672 66.672 33 67.5 33ZM78.5 33C79.328 33 80 33.672 80 34.5C80 35.328 79.328 36 78.5 36C77.672 36 77 35.328 77 34.5C77 33.672 77.672 33 78.5 33ZM89.5 33C90.328 33 91 33.672 91 34.5C91 35.328 90.328 36 89.5 36C88.672 36 88 35.328 88 34.5C88 33.672 88.672 33 89.5 33ZM100.5 33C101.328 33 102 33.672 102 34.5C102 35.328 101.328 36 100.5 36C99.672 36 99 35.328 99 34.5C99 33.672 99.672 33 100.5 33ZM111.5 33C112.328 33 113 33.672 113 34.5C113 35.328 112.328 36 111.5 36C110.672 36 110 35.328 110 34.5C110 33.672 110.672 33 111.5 33ZM122.5 33C123.328 33 124 33.672 124 34.5C124 35.328 123.328 36 122.5 36C121.672 36 121 35.328 121 34.5C121 33.672 121.672 33 122.5 33ZM133.5 33C134.328 33 135 33.672 135 34.5C135 35.328 134.328 36 133.5 36C132.672 36 132 35.328 132 34.5C132 33.672 132.672 33 133.5 33ZM144.5 33C145.328 33 146 33.672 146 34.5C146 35.328 145.328 36 144.5 36C143.672 36 143 35.328 143 34.5C143 33.672 143.672 33 144.5 33ZM155.5 33C156.328 33 157 33.672 157 34.5C157 35.328 156.328 36 155.5 36C154.672 36 154 35.328 154 34.5C154 33.672 154.672 33 155.5 33ZM166.5 33C167.328 33 168 33.672 168 34.5C168 35.328 167.328 36 166.5 36C165.672 36 165 35.328 165 34.5C165 33.672 165.672 33 166.5 33ZM1.5 22C2.328 22 3 22.672 3 23.5C3 24.328 2.328 25 1.5 25C0.672 25 0 24.328 0 23.5C0 22.672 0.672 22 1.5 22ZM12.5 22C13.328 22 14 22.672 14 23.5C14 24.328 13.328 25 12.5 25C11.672 25 11 24.328 11 23.5C11 22.672 11.672 22 12.5 22ZM23.5 22C24.328 22 25 22.672 25 23.5C25 24.328 24.328 25 23.5 25C22.672 25 22 24.328 22 23.5C22 22.672 22.672 22 23.5 22ZM34.5 22C35.328 22 36 22.672 36 23.5C36 24.328 35.328 25 34.5 25C33.672 25 33 24.328 33 23.5C33 22.672 33.672 22 34.5 22ZM45.5 22C46.328 22 47 22.672 47 23.5C47 24.328 46.328 25 45.5 25C44.672 25 44 24.328 44 23.5C44 22.672 44.672 22 45.5 22ZM56.5 22C57.328 22 58 22.672 58 23.5C58 24.328 57.328 25 56.5 25C55.672 25 55 24.328 55 23.5C55 22.672 55.672 22 56.5 22ZM67.5 22C68.328 22 69 22.672 69 23.5C69 24.328 68.328 25 67.5 25C66.672 25 66 24.328 66 23.5C66 22.672 66.672 22 67.5 22ZM78.5 22C79.328 22 80 22.672 80 23.5C80 24.328 79.328 25 78.5 25C77.672 25 77 24.328 77 23.5C77 22.672 77.672 22 78.5 22ZM89.5 22C90.328 22 91 22.672 91 23.5C91 24.328 90.328 25 89.5 25C88.672 25 88 24.328 88 23.5C88 22.672 88.672 22 89.5 22ZM100.5 22C101.328 22 102 22.672 102 23.5C102 24.328 101.328 25 100.5 25C99.672 25 99 24.328 99 23.5C99 22.672 99.672 22 100.5 22ZM111.5 22C112.328 22 113 22.672 113 23.5C113 24.328 112.328 25 111.5 25C110.672 25 110 24.328 110 23.5C110 22.672 110.672 22 111.5 22ZM122.5 22C123.328 22 124 22.672 124 23.5C124 24.328 123.328 25 122.5 25C121.672 25 121 24.328 121 23.5C121 22.672 121.672 22 122.5 22ZM133.5 22C134.328 22 135 22.672 135 23.5C135 24.328 134.328 25 133.5 25C132.672 25 132 24.328 132 23.5C132 22.672 132.672 22 133.5 22ZM144.5 22C145.328 22 146 22.672 146 23.5C146 24.328 145.328 25 144.5 25C143.672 25 143 24.328 143 23.5C143 22.672 143.672 22 144.5 22ZM155.5 22C156.328 22 157 22.672 157 23.5C157 24.328 156.328 25 155.5 25C154.672 25 154 24.328 154 23.5C154 22.672 154.672 22 155.5 22ZM166.5 22C167.328 22 168 22.672 168 23.5C168 24.328 167.328 25 166.5 25C165.672 25 165 24.328 165 23.5C165 22.672 165.672 22 166.5 22ZM1.5 11C2.328 11 3 11.672 3 12.5C3 13.328 2.328 14 1.5 14C0.672 14 0 13.328 0 12.5C0 11.672 0.672 11 1.5 11ZM12.5 11C13.328 11 14 11.672 14 12.5C14 13.328 13.328 14 12.5 14C11.672 14 11 13.328 11 12.5C11 11.672 11.672 11 12.5 11ZM23.5 11C24.328 11 25 11.672 25 12.5C25 13.328 24.328 14 23.5 14C22.672 14 22 13.328 22 12.5C22 11.672 22.672 11 23.5 11ZM34.5 11C35.328 11 36 11.672 36 12.5C36 13.328 35.328 14 34.5 14C33.672 14 33 13.328 33 12.5C33 11.672 33.672 11 34.5 11ZM45.5 11C46.328 11 47 11.672 47 12.5C47 13.328 46.328 14 45.5 14C44.672 14 44 13.328 44 12.5C44 11.672 44.672 11 45.5 11ZM56.5 11C57.328 11 58 11.672 58 12.5C58 13.328 57.328 14 56.5 14C55.672 14 55 13.328 55 12.5C55 11.672 55.672 11 56.5 11ZM67.5 11C68.328 11 69 11.672 69 12.5C69 13.328 68.328 14 67.5 14C66.672 14 66 13.328 66 12.5C66 11.672 66.672 11 67.5 11ZM78.5 11C79.328 11 80 11.672 80 12.5C80 13.328 79.328 14 78.5 14C77.672 14 77 13.328 77 12.5C77 11.672 77.672 11 78.5 11ZM89.5 11C90.328 11 91 11.672 91 12.5C91 13.328 90.328 14 89.5 14C88.672 14 88 13.328 88 12.5C88 11.672 88.672 11 89.5 11ZM100.5 11C101.328 11 102 11.672 102 12.5C102 13.328 101.328 14 100.5 14C99.672 14 99 13.328 99 12.5C99 11.672 99.672 11 100.5 11ZM111.5 11C112.328 11 113 11.672 113 12.5C113 13.328 112.328 14 111.5 14C110.672 14 110 13.328 110 12.5C110 11.672 110.672 11 111.5 11ZM122.5 11C123.328 11 124 11.672 124 12.5C124 13.328 123.328 14 122.5 14C121.672 14 121 13.328 121 12.5C121 11.672 121.672 11 122.5 11ZM133.5 11C134.328 11 135 11.672 135 12.5C135 13.328 134.328 14 133.5 14C132.672 14 132 13.328 132 12.5C132 11.672 132.672 11 133.5 11ZM144.5 11C145.328 11 146 11.672 146 12.5C146 13.328 145.328 14 144.5 14C143.672 14 143 13.328 143 12.5C143 11.672 143.672 11 144.5 11ZM155.5 11C156.328 11 157 11.672 157 12.5C157 13.328 156.328 14 155.5 14C154.672 14 154 13.328 154 12.5C154 11.672 154.672 11 155.5 11ZM166.5 11C167.328 11 168 11.672 168 12.5C168 13.328 167.328 14 166.5 14C165.672 14 165 13.328 165 12.5C165 11.672 165.672 11 166.5 11ZM1.5 0C2.328 0 3 0.672 3 1.5C3 2.328 2.328 3 1.5 3C0.672 3 0 2.328 0 1.5C0 0.672 0.672 0 1.5 0ZM12.5 0C13.328 0 14 0.672 14 1.5C14 2.328 13.328 3 12.5 3C11.672 3 11 2.328 11 1.5C11 0.672 11.672 0 12.5 0ZM23.5 0C24.328 0 25 0.672 25 1.5C25 2.328 24.328 3 23.5 3C22.672 3 22 2.328 22 1.5C22 0.672 22.672 0 23.5 0ZM34.5 0C35.328 0 36 0.672 36 1.5C36 2.328 35.328 3 34.5 3C33.672 3 33 2.328 33 1.5C33 0.672 33.672 0 34.5 0ZM45.5 0C46.328 0 47 0.672 47 1.5C47 2.328 46.328 3 45.5 3C44.672 3 44 2.328 44 1.5C44 0.672 44.672 0 45.5 0ZM56.5 0C57.328 0 58 0.672 58 1.5C58 2.328 57.328 3 56.5 3C55.672 3 55 2.328 55 1.5C55 0.672 55.672 0 56.5 0ZM67.5 0C68.328 0 69 0.672 69 1.5C69 2.328 68.328 3 67.5 3C66.672 3 66 2.328 66 1.5C66 0.672 66.672 0 67.5 0ZM78.5 0C79.328 0 80 0.672 80 1.5C80 2.328 79.328 3 78.5 3C77.672 3 77 2.328 77 1.5C77 0.672 77.672 0 78.5 0ZM89.5 0C90.328 0 91 0.672 91 1.5C91 2.328 90.328 3 89.5 3C88.672 3 88 2.328 88 1.5C88 0.672 88.672 0 89.5 0ZM100.5 0C101.328 0 102 0.672 102 1.5C102 2.328 101.328 3 100.5 3C99.672 3 99 2.328 99 1.5C99 0.672 99.672 0 100.5 0ZM111.5 0C112.328 0 113 0.672 113 1.5C113 2.328 112.328 3 111.5 3C110.672 3 110 2.328 110 1.5C110 0.672 110.672 0 111.5 0ZM122.5 0C123.328 0 124 0.672 124 1.5C124 2.328 123.328 3 122.5 3C121.672 3 121 2.328 121 1.5C121 0.672 121.672 0 122.5 0ZM133.5 0C134.328 0 135 0.672 135 1.5C135 2.328 134.328 3 133.5 3C132.672 3 132 2.328 132 1.5C132 0.672 132.672 0 133.5 0ZM144.5 0C145.328 0 146 0.672 146 1.5C146 2.328 145.328 3 144.5 3C143.672 3 143 2.328 143 1.5C143 0.672 143.672 0 144.5 0ZM155.5 0C156.328 0 157 0.672 157 1.5C157 2.328 156.328 3 155.5 3C154.672 3 154 2.328 154 1.5C154 0.672 154.672 0 155.5 0ZM166.5 0C167.328 0 168 0.672 168 1.5C168 2.328 167.328 3 166.5 3C165.672 3 165 2.328 165 1.5C165 0.672 165.672 0 166.5 0Z" fill-rule="NONZERO" fill="#d4d9e6" fill-opacity="0.35" style="mix-blend-mode:normal"/></g></g></g></svg>