<svg xmlns="http://www.w3.org/2000/svg" xmlns:xlink="http://www.w3.org/1999/xlink" fill="none" version="1.1" width="180" height="225" viewBox="0 0 180 225"><defs><filter id="relay_svg_eL9H7Z" filterUnits="userSpaceOnUse" color-interpolation-filters="sRGB" x="-30" y="-26" width="180" height="225"><feFlood flood-opacity="0" result="BackgroundImageFix"/><feColorMatrix in="SourceAlpha" type="matrix" values="0 0 0 0 0 0 0 0 0 0 0 0 0 0 0 0 0 0 127 0" result="hardAlpha"/><feOffset dy="4" dx="0"/><feGaussianBlur stdDeviation="7.5"/><feComposite xmlns="http://www.w3.org/2000/svg" in2="hardAlpha" operator="out"/><feColorMatrix type="matrix" values="0 0 0 0 0 0 0 0 0 0 0 0 0 0 0 0 0 0 0.1 0"/><feBlend mode="normal" in2="BackgroundImageFix" result="effect1_dropShadow"/><feBlend mode="normal" in="SourceGraphic" in2="effect1_dropShadow" result="shape"/></filter></defs><g style="mix-blend-mode:pass-through;opacity: 1;" filter="url(#relay_svg_eL9H7Z)" transform="matrix(1,0,0,1,15,11)"><path d="M0 4L0 181C0 183.209 1.79086 185 4 185L37.5 185L56.25 185L65.625 185L75 195L84.829 185L93.75 185L112.5 185L146 185C148.209 185 150 183.209 150 181L150 4C150 1.79086 148.209 0 146 0L4 0C1.79086 0 0 1.79086 0 4Z" fill-rule="NONZERO" fill="#ffffff" fill-opacity="1" style="mix-blend-mode:normal"/><path d="M74.3155 194.27L65.625 185L4 185C1.79086 185 0 183.209 0 181L0 4C0 1.79086 1.79086 0 4 0L146 0C148.209 0 150 1.79086 150 4L150 181C150 183.209 148.209 185 146 185L84.829 185L75.7016 194.286L75 195L74.3155 194.27ZM84.4097 184L75.0171 193.556L66.0582 184L4 184Q2.75736 184 1.87868 183.121Q1 182.243 1 181L1 4Q1 2.75736 1.87868 1.87868Q2.75736 1 4 1L146 1Q147.243 1 148.121 1.87868Q149 2.75736 149 4L149 181Q149 182.243 148.121 183.121Q147.243 184 146 184L84.4097 184Z" fill-rule="EVENODD" fill="#f4f4f4" fill-opacity="1" style="mix-blend-mode:normal"/></g></svg>