<svg xmlns="http://www.w3.org/2000/svg" xmlns:xlink="http://www.w3.org/1999/xlink" fill="none" version="1.1" width="110.00006103515625" height="115" viewBox="0 0 110.00006103515625 115"><defs><clipPath id="relay_svg_6dTh-5"><path d="M0 0L64 0L64 64L0 64L0 0Z"/></clipPath></defs><g style="mix-blend-mode:pass-through;opacity: 1;" transform="matrix(1,0,0,1,0,0.00006103515625)"><g style="mix-blend-mode:pass-through;opacity: 1;" transform="matrix(1,0,0,1,22.999950408935547,-0.00004999999873689376)"><g clip-path="url(#relay_svg_6dTh-5)"><rect width="64" height="64" rx="0" display="none" fill="#ffffff" fill-opacity="1" style="mix-blend-mode:normal"/><g style="mix-blend-mode:pass-through;opacity: 1;" transform="matrix(1,0,0,1,0,0)"><g style="mix-blend-mode:pass-through;opacity: 1;" transform="matrix(1,0,0,1,0,0)"></g><g style="mix-blend-mode:pass-through;opacity: 1;" transform="matrix(1,0,0,1,5.833049774169922,8.499988555908203)"><path d="M2.167 47L45.423 47C45.92 47 46.364 46.847 46.755 46.542C47.147 46.236 47.404 45.842 47.525 45.36L53.53 21.333L9.224 21.333L5.319 36.949L4.334 36.828L4.334 4.333L19.938 4.333L25.271 9.667L45.336 9.667L45.336 15L49.67 15L49.67 7.5C49.67 6.901 49.458 6.391 49.035 5.968C48.612 5.545 48.102 5.333 47.503 5.333L27.065 5.333L21.732 0L2.167 0C1.568 0 1.058 0.212 0.635 0.635C0.212 1.058 0 1.568 0 2.167L0 44.833C0 45.432 0.212 45.942 0.635 46.365C1.058 46.788 1.568 47 2.167 47ZM47.978 25.667L43.727 42.667L8.359 42.667L12.609 25.667L47.978 25.667Z" fill-rule="EVENODD" fill="#09111e" fill-opacity="1" style="mix-blend-mode:normal"/></g></g></g></g><g style="mix-blend-mode:pass-through;opacity: 1;" transform="matrix(1,0,0,1,0.00004999999873689376,74)"><g style="mix-blend-mode:pass-through;opacity: 1;" transform="matrix(1,0,0,1,33.5,0)"><path d="M1.36905 15L1.36905 5.00244L8.57755 5.00244L8.57755 6.40381L3.00626 6.40381L3.00626 9.17578L8.24258 9.17578L8.24258 10.5771L3.00626 10.5771L3.00626 13.5986L8.8168 13.5986L8.8168 15L1.36905 15ZM10.2169 15L10.2169 7.76074L11.8131 7.76074L11.8131 8.50244Q12.7086 7.56592 13.7716 7.56592Q15.3678 7.56592 16.0548 8.7417Q16.5572 8.06836 17.1041 7.81885Q17.5928 7.56592 18.3209 7.56592Q19.442 7.56592 20.1837 8.30762Q20.9117 9.07666 20.9117 10.2524L20.9117 15L19.3155 15L19.3155 10.5327Q19.3155 9.68164 18.9429 9.28857Q18.5738 8.89551 17.7467 8.89551Q17.1588 8.89551 16.7691 9.34326Q16.3624 9.76367 16.3624 10.5771L16.3624 15L14.7662 15L14.7662 10.5464Q14.7662 8.89551 13.3375 8.89551Q12.6368 8.89551 12.2335 9.42871Q11.8131 9.93115 11.8131 10.6592L11.8131 15L10.2169 15ZM22.5928 17.772L22.5928 7.76074L24.0762 7.76074L24.0762 8.5332Q24.8316 7.56592 26.2603 7.56592Q27.8565 7.56592 28.7793 8.70068Q29.6202 9.75 29.6202 11.4146Q29.6202 12.9971 28.793 14.0635Q27.9112 15.1948 26.3423 15.1948Q25.0845 15.1948 24.189 14.0054L24.189 17.772L22.5928 17.772ZM25.9664 13.9097Q27.0157 13.9097 27.5352 13.2227Q27.983 12.5767 27.983 11.4146Q27.983 10.2524 27.5762 9.60986Q27.0704 8.85449 26.021 8.85449Q25.0708 8.85449 24.5787 9.59619Q24.1309 10.2251 24.1309 11.3325L24.1309 11.4453Q24.1309 12.5903 24.6915 13.2773Q25.1973 13.9097 25.9664 13.9097ZM33.4988 15Q32.5589 15 32.1111 14.4976Q31.6907 14.0327 31.6907 13.1646L31.6907 9.07666L30.3885 9.07666L30.3885 7.76074L31.6907 7.76074L31.6907 6.08252L33.2869 5.42285L33.2869 7.76074L34.8968 7.76074L34.8968 9.07666L33.2869 9.07666L33.2869 13.1646Q33.2869 13.4312 33.3997 13.5576Q33.5262 13.6841 33.7654 13.6841L34.7156 13.6841L34.7156 15L33.4988 15ZM36.9125 17.772L38.1874 14.8325L35.3163 7.76074L37.0526 7.76074L38.9735 12.915L40.8056 7.76074L42.5419 7.76074L38.6215 17.772L36.9125 17.772Z" fill-rule="NONZERO" fill="#000000" fill-opacity="1" style="mix-blend-mode:pass-through"/></g><g style="mix-blend-mode:pass-through;opacity: 0.5;" transform="matrix(1,0,0,1,1.1368683772161603e-13,24)"><path d="M1.05442 13L1.05442 4.43066L2.37278 4.43066L6.75266 10.8027L6.80247 10.8027L6.80247 4.43066L8.10911 4.43066L8.10911 13L6.83762 13L2.41087 6.55469L2.36106 6.55469L2.36106 13L1.05442 13ZM12.5388 13.167Q11.1443 13.167 10.2683 12.2207Q9.44213 11.3213 9.44213 9.90332Q9.44213 8.47656 10.283 7.56543Q11.1326 6.62793 12.5417 6.62793Q13.9538 6.62793 14.7917 7.56543Q15.6326 8.5 15.6326 9.91211Q15.6326 11.3213 14.8064 12.2207Q13.9304 13.167 12.5388 13.167ZM12.5388 12.124Q13.4031 12.124 13.9187 11.4268Q14.3494 10.8174 14.3494 9.90332Q14.3494 8.95703 13.9187 8.36816Q13.4148 7.6709 12.533 7.6709Q11.6511 7.6709 11.1706 8.36816Q10.7488 8.94531 10.7488 9.90332Q10.7488 10.8525 11.1706 11.4268Q11.6628 12.124 12.5388 12.124ZM20.8424 15.376L20.8424 6.79492L22.029 6.79492L22.029 7.53906Q22.6764 6.62793 23.9508 6.62793Q25.3044 6.62793 26.0983 7.60059Q26.819 8.5 26.819 9.92676Q26.819 11.2832 26.11 12.1973Q25.3542 13.167 24.0094 13.167Q22.8698 13.167 22.1139 12.0889L22.1139 15.376L20.8424 15.376ZM23.7223 12.1357Q24.6569 12.1357 25.1022 11.5234Q25.5094 10.9346 25.5094 9.93262Q25.5094 8.93066 25.1374 8.33301Q24.695 7.65918 23.7575 7.65918Q22.9167 7.65918 22.4743 8.32129Q22.0788 8.89551 22.0788 9.85645L22.0788 9.96484Q22.0788 10.9727 22.571 11.5732Q23.0016 12.1357 23.7223 12.1357ZM28.0185 13L28.0185 6.79492L29.29 6.79492L29.29 7.73242Q29.5185 7.24023 29.8906 6.97656Q30.3095 6.62793 30.8984 6.62793Q31.3906 6.62793 31.7011 6.7832L31.7011 8.05469Q31.2705 7.92285 30.8017 7.92285Q30.2246 7.92285 29.7705 8.3916Q29.29 8.88379 29.29 9.71289L29.29 13L28.0185 13ZM35.339 13.167Q33.9445 13.167 33.0685 12.2207Q32.2423 11.3213 32.2423 9.90332Q32.2423 8.47656 33.0831 7.56543Q33.9327 6.62793 35.3419 6.62793Q36.754 6.62793 37.5919 7.56543Q38.4327 8.5 38.4327 9.91211Q38.4327 11.3213 37.6066 12.2207Q36.7306 13.167 35.339 13.167ZM35.339 12.124Q36.2032 12.124 36.7189 11.4268Q37.1495 10.8174 37.1495 9.90332Q37.1495 8.95703 36.7189 8.36816Q36.215 7.6709 35.3331 7.6709Q34.4513 7.6709 33.9708 8.36816Q33.5489 8.94531 33.5489 9.90332Q33.5489 10.8525 33.9708 11.4268Q34.463 12.124 35.339 12.124ZM42.503 15.543Q41.2169 15.543 40.5226 15.0508Q39.8487 14.5586 39.67 13.5273L40.9415 13.5273Q41.0499 14.0811 41.3985 14.3066Q41.7589 14.5352 42.503 14.5352Q44.1231 14.5352 44.1231 12.7832L44.1231 11.8252Q43.4376 12.8564 42.2247 12.8564Q40.9649 12.8564 40.1856 12.0039Q39.4063 11.1748 39.4063 9.76562Q39.4063 8.35645 40.1856 7.50391Q40.9532 6.62793 42.2247 6.62793Q43.4493 6.62793 44.1231 7.62402L44.1231 6.79492L45.3946 6.79492L45.3946 12.5928Q45.3946 15.543 42.503 15.543ZM42.4181 11.8105Q43.2208 11.8105 43.6896 11.2715Q44.1349 10.6973 44.1349 9.75977Q44.1349 8.79883 43.6896 8.22461Q43.2325 7.65918 42.4093 7.65918Q41.589 7.65918 41.17 8.22461Q40.713 8.75195 40.713 9.75977Q40.713 10.6592 41.0733 11.1895Q41.4952 11.8105 42.4181 11.8105ZM46.8346 13L46.8346 6.79492L48.1061 6.79492L48.1061 7.73242Q48.3346 7.24023 48.7067 6.97656Q49.1256 6.62793 49.7145 6.62793Q50.2067 6.62793 50.5173 6.7832L50.5173 8.05469Q50.0866 7.92285 49.6178 7.92285Q49.0407 7.92285 48.5866 8.3916Q48.1061 8.88379 48.1061 9.71289L48.1061 13L46.8346 13ZM53.9735 13.167Q52.5936 13.167 51.8026 12.3174Q50.9383 11.415 50.9383 9.8916Q50.9383 8.5 51.7528 7.57715Q52.5467 6.62793 53.9266 6.62793Q55.4618 6.62793 56.2411 7.65918Q56.9735 8.6084 56.9852 10.252L52.283 10.252Q52.3534 11.1748 52.7752 11.6436Q53.2176 12.124 53.9618 12.124Q54.6209 12.124 55.0428 11.8105Q55.3416 11.585 55.6053 11.0078L56.8768 11.0078Q56.6512 11.8955 56.0272 12.4609Q55.2098 13.167 53.9735 13.167ZM52.3065 9.29102L55.6551 9.29102Q55.4735 7.6709 53.9618 7.6709Q53.2411 7.6709 52.828 8.09863Q52.4149 8.52344 52.3065 9.29102ZM60.4661 13.167Q57.9232 13.167 57.7064 10.9961L58.9544 10.9961Q59.0628 11.6201 59.3968 11.8838Q59.7337 12.124 60.431 12.124Q61.9193 12.124 61.9193 11.2832Q61.9193 10.8291 61.3655 10.5771Q61.0784 10.4307 60.1175 10.2168Q59.013 9.96484 58.5823 9.6748Q57.8616 9.2207 57.8616 8.42676Q57.8616 7.57715 58.5589 7.1084Q59.2532 6.62793 60.3812 6.62793Q62.807 6.62793 63.0208 8.58496L61.7874 8.58496Q61.6409 8.08105 61.3421 7.8877Q61.0169 7.6709 60.3577 7.6709Q59.7571 7.6709 59.4935 7.84082Q59.1566 8.01953 59.1566 8.3916Q59.1566 8.70508 59.6634 8.94531Q59.9739 9.07715 60.9114 9.31738Q61.9544 9.56934 62.4818 9.90332Q63.2259 10.3721 63.2259 11.2012Q63.2259 13.167 60.4661 13.167ZM66.7062 13.167Q64.1632 13.167 63.9464 10.9961L65.1945 10.9961Q65.3029 11.6201 65.6368 11.8838Q65.9738 12.124 66.671 12.124Q68.1593 12.124 68.1593 11.2832Q68.1593 10.8291 67.6056 10.5771Q67.3185 10.4307 66.3576 10.2168Q65.2531 9.96484 64.8224 9.6748Q64.1017 9.2207 64.1017 8.42676Q64.1017 7.57715 64.799 7.1084Q65.4933 6.62793 66.6212 6.62793Q69.047 6.62793 69.2609 8.58496L68.0275 8.58496Q67.881 8.08105 67.5822 7.8877Q67.257 7.6709 66.5978 7.6709Q65.9972 7.6709 65.7335 7.84082Q65.3966 8.01953 65.3966 8.3916Q65.3966 8.70508 65.9035 8.94531Q66.214 9.07715 67.1515 9.31738Q68.1945 9.56934 68.7218 9.90332Q69.466 10.3721 69.466 11.2012Q69.466 13.167 66.7062 13.167ZM75.3104 13L75.3104 7.84082L73.8807 7.84082L73.8807 6.79492L75.3104 6.79492L75.3104 6.12402Q75.3104 5.32129 75.7411 4.8877Q76.163 4.43066 76.9891 4.43066L78.287 4.43066L78.287 5.51172L77.1708 5.51172Q76.8573 5.51172 76.7138 5.66699Q76.5702 5.81348 76.5702 6.15918L76.5702 6.79492L78.202 6.79492L78.202 7.84082L76.5702 7.84082L76.5702 13L75.3104 13ZM81.9233 13.167Q80.5288 13.167 79.6528 12.2207Q78.8267 11.3213 78.8267 9.90332Q78.8267 8.47656 79.6675 7.56543Q80.5171 6.62793 81.9263 6.62793Q83.3384 6.62793 84.1763 7.56543Q85.0171 8.5 85.0171 9.91211Q85.0171 11.3213 84.1909 12.2207Q83.3149 13.167 81.9233 13.167ZM81.9233 12.124Q82.7876 12.124 83.3032 11.4268Q83.7339 10.8174 83.7339 9.90332Q83.7339 8.95703 83.3032 8.36816Q82.7993 7.6709 81.9175 7.6709Q81.0356 7.6709 80.5552 8.36816Q80.1333 8.94531 80.1333 9.90332Q80.1333 10.8525 80.5552 11.4268Q81.0474 12.124 81.9233 12.124ZM88.4751 13.167Q86.2309 13.167 86.2309 10.6592L86.2309 6.79492L87.5024 6.79492L87.5024 10.5771Q87.5024 11.3799 87.8393 11.7285Q88.1733 12.1006 88.9057 12.1006Q89.3862 12.1006 89.8227 11.6875Q90.2622 11.2715 90.4292 10.5889L90.4292 6.79492L91.7036 6.79492L91.7036 13L90.4292 13L90.4292 12.1592Q89.6382 13.167 88.4751 13.167ZM93.155 13L93.155 6.79492L94.4265 6.79492L94.4265 7.56543Q94.7751 7.1084 95.2556 6.86816Q95.6979 6.62793 96.2985 6.62793Q98.613 6.62793 98.613 9.1709L98.613 13L97.3415 13L97.3415 9.2793Q97.3415 7.69727 95.8913 7.69727Q95.3259 7.69727 94.9421 8.08105Q94.4997 8.52344 94.4265 9.26758L94.4265 13L93.155 13ZM102.695 13.167Q101.327 13.167 100.547 12.1973Q99.8268 11.2949 99.8268 9.86816Q99.8268 8.48828 100.536 7.60059Q101.292 6.62793 102.633 6.62793Q103.773 6.62793 104.529 7.7207L104.529 4.26367L105.803 4.26367L105.803 13L104.614 13L104.614 12.2559Q103.955 13.167 102.695 13.167ZM102.885 12.1357Q103.691 12.1357 104.172 11.4766Q104.567 10.876 104.567 9.95312L104.567 9.84473Q104.567 8.84863 104.087 8.22461Q103.63 7.65918 102.923 7.65918Q101.974 7.65918 101.529 8.29492Q101.133 8.83691 101.133 9.86816Q101.133 10.8994 101.506 11.4648Q101.939 12.1357 102.885 12.1357ZM108.154 13.0586Q107.77 13.0586 107.53 12.8213Q107.267 12.5547 107.267 12.1826Q107.267 11.7871 107.53 11.5352Q107.77 11.2832 108.154 11.2832Q108.526 11.2832 108.79 11.5352Q109.054 11.7988 109.054 12.1826Q109.054 12.5312 108.79 12.8213Q108.515 13.0586 108.154 13.0586Z" fill-rule="NONZERO" fill="#000000" fill-opacity="1" style="mix-blend-mode:pass-through"/></g></g></g></svg>