<svg xmlns="http://www.w3.org/2000/svg" xmlns:xlink="http://www.w3.org/1999/xlink" fill="none" version="1.1" width="24" height="24" viewBox="0 0 24 24"><defs><clipPath id="relay_svg_ofMkOa"><path d="M0 0L24 0L24 24L0 24L0 0Z"/></clipPath></defs><g style="mix-blend-mode:pass-through;opacity: 0.5;" transform="matrix(1,0,0,1,0,0)"><g clip-path="url(#relay_svg_ofMkOa)"><rect width="24" height="24" rx="0" display="none" fill="#ffffff" fill-opacity="1" style="mix-blend-mode:normal"/><g style="mix-blend-mode:pass-through;opacity: 1;" transform="matrix(1,0,0,1,0,0)"><g style="mix-blend-mode:pass-through;opacity: 1;" transform="matrix(1,0,0,1,0,0)"></g><g style="mix-blend-mode:pass-through;opacity: 1;" transform="matrix(1,0,0,1,2,2)"><path d="M16.5 8L20.9 19L18.745 19L17.544 16L13.454 16L12.255 19L10.101 19L14.5 8L16.5 8ZM8 0L8 2L14 2L14 4L12.032 4C11.2606 6.32208 10.0295 8.46502 8.412 10.301C9.1333 10.9446 9.91568 11.5163 10.748 12.008L9.997 13.886C8.92252 13.2766 7.9176 12.552 7 11.725C5.21358 13.3417 3.09804 14.5522 0.799 15.273L0.263 13.344C2.23284 12.7159 4.04802 11.6793 5.59 10.302C4.44869 9.00994 3.49806 7.56127 2.767 6L5.007 6C5.56435 7.02886 6.23267 7.9936 7 8.877C8.25011 7.4361 9.2353 5.7853 9.91 4.001L0 4L0 2L6 2L6 0L8 0ZM15.5 10.885L14.253 14L16.745 14L15.5 10.885Z" fill-rule="NONZERO" fill="#09111e" fill-opacity="1" style="mix-blend-mode:normal"/></g></g></g></g></svg>