<svg xmlns="http://www.w3.org/2000/svg" xmlns:xlink="http://www.w3.org/1999/xlink" fill="none" version="1.1" width="24" height="24" viewBox="0 0 24 24"><defs><clipPath id="relay_svg_tGWp5f"><path d="M0 0L24 0L24 24L0 24L0 0Z"/></clipPath></defs><g style="mix-blend-mode:pass-through;opacity: 0.5;" transform="matrix(1,0,0,1,0,0)"><g clip-path="url(#relay_svg_tGWp5f)"><rect width="24" height="24" rx="0" display="none" fill="#ffffff" fill-opacity="1" style="mix-blend-mode:normal"/><g style="mix-blend-mode:pass-through;opacity: 1;" transform="matrix(1,0,0,1,0,0)"><g style="mix-blend-mode:pass-through;opacity: 1;" transform="matrix(1,0,0,1,0,0)"></g><g style="mix-blend-mode:pass-through;opacity: 1;" transform="matrix(1,0,0,1,1,1)"><path d="M11 17C9.4087 17 7.88258 16.3679 6.75736 15.2426C5.63214 14.1174 5 12.5913 5 11C5 9.4087 5.63214 7.88258 6.75736 6.75736C7.88258 5.63214 9.4087 5 11 5C12.5913 5 14.1174 5.63214 15.2426 6.75736C16.3679 7.88258 17 9.4087 17 11C17 12.5913 16.3679 14.1174 15.2426 15.2426C14.1174 16.3679 12.5913 17 11 17ZM11 15C12.0609 15 13.0783 14.5786 13.8284 13.8284C14.5786 13.0783 15 12.0609 15 11C15 9.93913 14.5786 8.92172 13.8284 8.17157C13.0783 7.42143 12.0609 7 11 7C9.93913 7 8.92172 7.42143 8.17157 8.17157C7.42143 8.92172 7 9.93913 7 11C7 12.0609 7.42143 13.0783 8.17157 13.8284C8.92172 14.5786 9.93913 15 11 15L11 15ZM10 0L12 0L12 3L10 3L10 0ZM10 19L12 19L12 22L10 22L10 19ZM2.515 3.929L3.929 2.515L6.05 4.636L4.636 6.05L2.515 3.93L2.515 3.929ZM15.95 17.364L17.364 15.95L19.485 18.071L18.071 19.485L15.95 17.364ZM18.071 2.514L19.485 3.929L17.364 6.05L15.95 4.636L18.071 2.515L18.071 2.514ZM4.636 15.95L6.05 17.364L3.929 19.485L2.515 18.071L4.636 15.95L4.636 15.95ZM22 10L22 12L19 12L19 10L22 10ZM3 10L3 12L0 12L0 10L3 10Z" fill-rule="NONZERO" fill="#09111e" fill-opacity="1" style="mix-blend-mode:normal"/></g></g></g></g></svg>