<svg xmlns="http://www.w3.org/2000/svg" xmlns:xlink="http://www.w3.org/1999/xlink" fill="none" version="1.1" width="20" height="20" viewBox="0 0 20 20"><defs></defs><g style="mix-blend-mode:pass-through;opacity: 1;" transform="matrix(1,0,0,1,0.00003985460534750018,0)"><g style="mix-blend-mode:pass-through;opacity: 1;" transform="matrix(1,0,0,1,0,0)"></g><g style="mix-blend-mode:pass-through;opacity: 1;" transform="matrix(1,0,0,1,1.6666667461395264,2.5)"><path d="M0.833 15C0.612 15 0.4 14.912 0.244 14.756C0.088 14.6 0 14.388 0 14.167L0 0.833C0 0.612 0.088 0.4 0.244 0.244C0.4 0.088 0.612 0 0.833 0L7.012 0L8.678 1.667L15 1.667C15.221 1.667 15.433 1.754 15.589 1.911C15.746 2.067 15.833 2.279 15.833 2.5L15.833 5L14.167 5L14.167 3.333L7.988 3.333L6.322 1.667L1.667 1.667L1.667 11.665L2.917 6.667L17.083 6.667L15.158 14.369C15.113 14.549 15.009 14.709 14.863 14.824C14.716 14.938 14.536 15 14.35 15L0.833 15L0.833 15ZM14.948 8.333L4.218 8.333L2.968 13.333L13.698 13.333L14.948 8.333Z" fill-rule="NONZERO" fill="#09111e" fill-opacity="1" style="mix-blend-mode:normal"/></g></g></svg>