<svg xmlns="http://www.w3.org/2000/svg" xmlns:xlink="http://www.w3.org/1999/xlink" fill="none" version="1.1" width="20" height="20" viewBox="0 0 20 20"><defs></defs><g style="mix-blend-mode:pass-through;opacity: 1;" transform="matrix(1,0,0,1,0.000060578910051845014,0)"><g style="mix-blend-mode:pass-through;opacity: 1;" transform="matrix(1,0,0,1,0,0)"></g><g style="mix-blend-mode:pass-through;opacity: 1;" transform="matrix(1,0,0,1,2.5,2.5)"><path d="M3.333 13.333L3.333 8.333L11.667 8.333L11.667 13.333L13.333 13.333L13.333 4.023L10.977 1.667L1.667 1.667L1.667 13.333L3.333 13.333ZM0.833 0L11.667 0L15 3.333L15 14.167C15 14.388 14.912 14.6 14.756 14.756C14.6 14.912 14.388 15 14.167 15L0.833 15C0.612 15 0.4 14.912 0.244 14.756C0.088 14.6 0 14.388 0 14.167L0 0.833C0 0.612 0.088 0.4 0.244 0.244C0.4 0.088 0.612 0 0.833 0L0.833 0ZM5 10L5 13.333L10 13.333L10 10L5 10Z" fill-rule="NONZERO" fill="#09111e" fill-opacity="1" style="mix-blend-mode:normal"/></g></g></svg>