<svg xmlns="http://www.w3.org/2000/svg" xmlns:xlink="http://www.w3.org/1999/xlink" fill="none" version="1.1" width="20" height="20" viewBox="0 0 20 20"><defs></defs><g style="mix-blend-mode:pass-through;opacity: 1;" transform="matrix(1,0,0,1,0.00001621246337890625,0)"><g style="mix-blend-mode:pass-through;opacity: 1;" transform="matrix(1,0,0,1,0,0)"></g><g style="mix-blend-mode:pass-through;opacity: 1;" transform="matrix(1,0,0,1,1.6666667461395264,2.5)"><path d="M7.012 0L8.678 1.667L15.833 1.667C16.293 1.667 16.667 2.04 16.667 2.5L16.667 14.167C16.667 14.627 16.293 15 15.833 15L0.833 15C0.373 15 0 14.627 0 14.167L0 0.833C0 0.373 0.373 0 0.833 0L7.012 0ZM6.322 1.667L1.667 1.667L1.667 13.333L15 13.333L15 3.333L7.988 3.333L6.322 1.667ZM9.167 5L9.167 8.333L11.667 8.333L11.667 10L7.5 10L7.5 5L9.167 5Z" fill-rule="NONZERO" fill="#09111e" fill-opacity="1" style="mix-blend-mode:normal"/></g></g></svg>