<svg xmlns="http://www.w3.org/2000/svg" xmlns:xlink="http://www.w3.org/1999/xlink" fill="none" version="1.1" width="24" height="24" viewBox="0 0 24 24"><defs></defs><g style="mix-blend-mode:pass-through;opacity: 1;" transform="matrix(1,0,0,1,-0.0000133514404296875,0)"><g style="mix-blend-mode:pass-through;opacity: 1;" transform="matrix(1,0,0,1,0,0)"></g><g style="mix-blend-mode:pass-through;opacity: 1;" transform="matrix(1,0,0,1,2.877642869949341,2.111440658569336)"><path d="M11.9504 5.64556L6.29436 11.3026C6.19885 11.3948 6.12267 11.5052 6.07026 11.6272C6.01785 11.7492 5.99026 11.8804 5.98911 12.0132C5.98795 12.1459 6.01325 12.2776 6.06354 12.4005C6.11382 12.5234 6.18807 12.6351 6.28196 12.729C6.37585 12.8228 6.48751 12.8971 6.6104 12.9474C6.7333 12.9977 6.86498 13.023 6.99776 13.0218C7.13054 13.0207 7.26176 12.9931 7.38376 12.9407C7.50577 12.8883 7.61611 12.8121 7.70836 12.7166L13.3654 7.06056C13.928 6.4979 14.2441 5.73478 14.2441 4.93906C14.2441 4.14334 13.928 3.38022 13.3654 2.81756C12.8027 2.2549 12.0396 1.93881 11.2439 1.93881C10.4481 1.93881 9.68501 2.2549 9.12236 2.81756L3.46536 8.47456C2.99143 8.93669 2.61399 9.48832 2.35491 10.0975C2.09584 10.7066 1.9603 11.3611 1.95615 12.023C1.95201 12.685 2.07934 13.3411 2.33075 13.9535C2.58217 14.5658 2.95268 15.1221 3.42077 15.5902C3.88887 16.0582 4.44524 16.4286 5.05761 16.6799C5.66998 16.9313 6.32616 17.0585 6.98809 17.0543C7.65002 17.05 8.30452 16.9144 8.91362 16.6552C9.52272 16.3961 10.0743 16.0185 10.5364 15.5446L16.1934 9.88856L17.6074 11.3026L11.9504 16.9596C11.3003 17.6096 10.5286 18.1252 9.67928 18.477C8.82996 18.8288 7.91966 19.0099 7.00036 19.0099C6.08106 19.0099 5.17076 18.8288 4.32144 18.477C3.47211 18.1252 2.7004 17.6096 2.05036 16.9596C1.40031 16.3095 0.884671 15.5378 0.53287 14.6885C0.181069 13.8392 -6.84932e-09 12.9289 4.44089e-16 12.0096C6.84932e-09 11.0903 0.181069 10.18 0.53287 9.33064C0.884671 8.48132 1.40031 7.7096 2.05036 7.05956L7.70836 1.40356C8.65137 0.492769 9.91438 -0.0112031 11.2254 0.000189013C12.5363 0.0115811 13.7904 0.537426 14.7175 1.46447C15.6445 2.39151 16.1703 3.64557 16.1817 4.95655C16.1931 6.26754 15.6891 7.53055 14.7784 8.47356L9.12236 14.1326C8.84369 14.4112 8.51288 14.6321 8.14881 14.7829C7.78475 14.9336 7.39455 15.0112 7.0005 15.0112C6.60646 15.0111 6.21628 14.9335 5.85225 14.7826C5.48822 14.6318 5.15746 14.4107 4.87886 14.1321C4.60026 13.8534 4.37927 13.5226 4.22852 13.1585C4.07777 12.7944 4.0002 12.4043 4.00025 12.0102C4.0003 11.6162 4.07795 11.226 4.22879 10.8619C4.37963 10.4979 4.60069 10.1672 4.87936 9.88856L10.5364 4.23156L11.9504 5.64556Z" fill-rule="NONZERO" fill="#09111e" fill-opacity="1" style="mix-blend-mode:normal"/></g></g></svg>