<svg xmlns="http://www.w3.org/2000/svg" xmlns:xlink="http://www.w3.org/1999/xlink" fill="none" version="1.1" width="24" height="24" viewBox="0 0 24 24"><defs></defs><g style="mix-blend-mode:pass-through;opacity: 1;" transform="matrix(1,0,0,1,-0.0000133514404296875,0)"><g style="mix-blend-mode:pass-through;opacity: 1;" transform="matrix(1,0,0,1,0,0)"></g><g style="mix-blend-mode:pass-through;opacity: 1;" transform="matrix(1,0,0,1,2,4)"><path d="M0 14L7 14L7 16L0 16L0 14ZM0 7L9 7L9 9L0 9L0 7ZM0 0L20 0L20 2L0 2L0 0ZM18.674 9.025L19.83 8.634L20.83 10.366L19.914 11.171C20.0293 11.7177 20.0293 12.2823 19.914 12.829L20.83 13.634L19.83 15.366L18.674 14.975C18.264 15.345 17.776 15.63 17.239 15.805L17 17L15 17L14.76 15.804C14.2293 15.6306 13.7408 15.3478 13.326 14.974L12.17 15.366L11.17 13.634L12.086 12.829C11.9707 12.2823 11.9707 11.7177 12.086 11.171L11.17 10.366L12.17 8.634L13.326 9.025C13.736 8.655 14.224 8.37 14.761 8.195L15 7L17 7L17.24 8.196C17.776 8.37 18.264 8.656 18.674 9.026L18.674 9.025ZM16 14C16.5304 14 17.0391 13.7893 17.4142 13.4142C17.7893 13.0391 18 12.5304 18 12C18 11.4696 17.7893 10.9609 17.4142 10.5858C17.0391 10.2107 16.5304 10 16 10C15.4696 10 14.9609 10.2107 14.5858 10.5858C14.2107 10.9609 14 11.4696 14 12C14 12.5304 14.2107 13.0391 14.5858 13.4142C14.9609 13.7893 15.4696 14 16 14L16 14Z" fill-rule="NONZERO" fill="#155eee" fill-opacity="1" style="mix-blend-mode:normal"/></g></g></svg>