<svg xmlns="http://www.w3.org/2000/svg" xmlns:xlink="http://www.w3.org/1999/xlink" fill="none" version="1.1" width="20" height="20" viewBox="0 0 20 20"><defs><clipPath id="relay_svg_MOy3IF"><path d="M0 0L20 0L20 20L0 20L0 0Z"/></clipPath></defs><g style="mix-blend-mode:pass-through;opacity: 1;" transform="matrix(1,0,0,1,0.0002808570861816406,-0.00003528594970703125)"><g clip-path="url(#relay_svg_MOy3IF)"><rect width="20" height="20" rx="0" display="none" fill="#ffffff" fill-opacity="1" style="mix-blend-mode:normal"/><g style="mix-blend-mode:pass-through;opacity: 1;" transform="matrix(1,0,0,1,0,0)"><g style="mix-blend-mode:pass-through;opacity: 1;" transform="matrix(1,0,0,1,0,0)"></g><g style="mix-blend-mode:pass-through;opacity: 1;" transform="matrix(1,0,0,1,2.0833334922790527,1.6666667461395264)"><path d="M14.583 0C14.804 0 15.016 0.088 15.173 0.244C15.329 0.4 15.417 0.612 15.417 0.833L15.417 5C15.417 5.221 15.329 5.433 15.173 5.589C15.016 5.746 14.804 5.833 14.583 5.833L10.417 5.833L10.417 16.667C10.417 16.888 10.329 17.1 10.173 17.256C10.016 17.412 9.804 17.5 9.583 17.5L6.25 17.5C6.029 17.5 5.817 17.412 5.661 17.256C5.504 17.1 5.417 16.888 5.417 16.667L5.417 5.833L0.833 5.833C0.612 5.833 0.4 5.746 0.244 5.589C0.088 5.433 0 5.221 0 5L0 3.015C0 2.86 0.043 2.709 0.125 2.577C0.206 2.445 0.322 2.339 0.461 2.27L5 0L14.583 0ZM10.417 1.667L5.393 1.667L1.667 3.53L1.667 4.167L7.083 4.167L7.083 15.833L8.75 15.833L8.75 4.167L10.417 4.167L10.417 1.667ZM13.75 1.667L12.083 1.667L12.083 4.167L13.75 4.167L13.75 1.667Z" fill-rule="NONZERO" fill="#155eef" fill-opacity="1" style="mix-blend-mode:normal"/></g></g></g></g></svg>