<svg xmlns="http://www.w3.org/2000/svg" xmlns:xlink="http://www.w3.org/1999/xlink" fill="none" version="1.1" width="20" height="20" viewBox="0 0 20 20"><defs><clipPath id="relay_svg_jPrKJE"><path d="M0 0L20 0L20 20L0 20L0 0Z"/></clipPath></defs><g style="mix-blend-mode:pass-through;opacity: 1;" transform="matrix(1,0,0,1,0.00009775161743164062,0.00015878677368164062)"><g clip-path="url(#relay_svg_jPrKJE)"><rect width="20" height="20" rx="0" display="none" fill="#ffffff" fill-opacity="1" style="mix-blend-mode:normal"/><g style="mix-blend-mode:pass-through;opacity: 1;" transform="matrix(1,0,0,1,0,0)"><g style="mix-blend-mode:pass-through;opacity: 1;" transform="matrix(1,0,0,1,0,0)"></g><g style="mix-blend-mode:pass-through;opacity: 1;" transform="matrix(1,0,0,1,2.5,1.6666666269302368)"><path d="M6.667 0C10.057 0 12.855 2.53 13.278 5.804L15.153 8.753C15.277 8.947 15.252 9.237 14.966 9.36L13.333 10.058L13.333 12.5C13.333 13.421 12.588 14.167 11.667 14.167L10.001 14.167L10 16.667L2.5 16.667L2.5 13.588C2.5 12.605 2.137 11.674 1.463 10.834C0.548 9.693 0 8.243 0 6.667C0 2.985 2.985 0 6.667 0ZM6.667 1.667C3.905 1.667 1.667 3.905 1.667 6.667C1.667 7.821 2.057 8.911 2.763 9.792C3.675 10.928 4.167 12.222 4.167 13.588L4.167 15L8.333 15L8.335 12.5L11.667 12.5L11.667 8.96L12.958 8.407L11.673 6.386L11.625 6.017C11.305 3.542 9.187 1.667 6.667 1.667ZM6.667 4.167C7.127 4.167 7.5 4.54 7.5 5L7.5 5.833L8.333 5.833C8.793 5.833 9.167 6.207 9.167 6.667C9.167 7.127 8.793 7.5 8.333 7.5L7.5 7.5L7.5 8.333C7.5 8.793 7.127 9.167 6.667 9.167C6.207 9.167 5.833 8.793 5.833 8.333L5.833 7.499L5 7.5C4.54 7.5 4.167 7.127 4.167 6.667C4.167 6.207 4.54 5.833 5 5.833L5.833 5.832L5.833 5C5.833 4.54 6.207 4.167 6.667 4.167Z" fill-rule="NONZERO" fill="#155eef" fill-opacity="1" style="mix-blend-mode:normal"/></g></g></g></g></svg>