<svg xmlns="http://www.w3.org/2000/svg" xmlns:xlink="http://www.w3.org/1999/xlink" fill="none" version="1.1" width="20" height="20" viewBox="0 0 20 20"><defs><clipPath id="relay_svg_Oh1JyO"><path d="M0 0L20 0L20 20L0 20L0 0Z"/></clipPath></defs><g style="mix-blend-mode:pass-through;opacity: 1;" transform="matrix(1,0,0,1,0.00009775161743164062,0.0000476837158203125)"><g clip-path="url(#relay_svg_Oh1JyO)"><rect width="20" height="20" rx="0" display="none" fill="#ffffff" fill-opacity="1" style="mix-blend-mode:normal"/><g style="mix-blend-mode:pass-through;opacity: 1;" transform="matrix(1,0,0,1,0,0)"><g style="mix-blend-mode:pass-through;opacity: 1;" transform="matrix(1,0,0,1,0,0)"></g><g style="mix-blend-mode:pass-through;opacity: 1;" transform="matrix(1,0,0,1,2.0833332538604736,1.4633333683013916)"><path d="M2.917 16.453C1.306 16.453 0 15.147 0 13.537C0 11.926 1.306 10.62 2.917 10.62C4.238 10.62 5.353 11.498 5.712 12.703L10.417 12.703L10.417 11.037L12.083 11.037L12.083 6.238L10.214 4.37L5.417 4.37L5.417 6.037L0.417 6.037L0.417 1.037L5.417 1.037L5.417 2.703L10.214 2.703L12.917 0L16.453 3.537L13.75 6.238L13.75 11.037L15.417 11.037L15.417 16.037L10.417 16.037L10.417 14.37L5.712 14.37C5.354 15.575 4.238 16.453 2.917 16.453ZM2.917 12.287C2.227 12.287 1.667 12.847 1.667 13.537C1.667 14.227 2.227 14.787 2.917 14.787C3.607 14.787 4.167 14.227 4.167 13.537C4.167 12.847 3.607 12.287 2.917 12.287ZM13.75 12.703L12.083 12.703L12.083 14.37L13.75 14.37L13.75 12.703ZM12.917 2.358L11.738 3.537L12.917 4.715L14.095 3.537L12.917 2.358ZM3.75 2.703L2.083 2.703L2.083 4.37L3.75 4.37L3.75 2.703Z" fill-rule="NONZERO" fill="#155eef" fill-opacity="1" style="mix-blend-mode:normal"/></g></g></g></g></svg>