
<svg xmlns="http://www.w3.org/2000/svg" xmlns:xlink="http://www.w3.org/1999/xlink" fill="none" version="1.1" width="22" height="22" viewBox="0 0 22 22"><defs></defs><g style="mix-blend-mode:pass-through;opacity: 1;" transform="matrix(1,0,0,1,0,0.00006103515625)"><path d="M0 0L22 0L22 22L0 22L0 0Z" fill-rule="NONZERO" display="none" fill="#ffffff" fill-opacity="1" style="mix-blend-mode:normal"/><g style="mix-blend-mode:pass-through;opacity: 1;" transform="matrix(1,0,0,1,0,0)"><g style="mix-blend-mode:pass-through;opacity: 1;" transform="matrix(1,0,0,1,0,0)"></g><g style="mix-blend-mode:pass-through;opacity: 1;" transform="matrix(1,0,0,1,1.8333333730697632,2.75)"><path d="M7.333 0L11 0C12.945 0 14.81 0.773 16.185 2.148C17.561 3.523 18.333 5.388 18.333 7.333C18.333 9.278 17.561 11.144 16.185 12.519C14.81 13.894 12.945 14.667 11 14.667L11 17.875C6.417 16.042 0 13.292 0 7.333C0 5.388 0.773 3.523 2.148 2.148C3.523 0.773 5.388 0 7.333 0L7.333 0ZM9.167 12.833L11 12.833C11.722 12.833 12.437 12.691 13.105 12.415C13.772 12.138 14.378 11.733 14.889 11.222C15.4 10.712 15.805 10.105 16.081 9.438C16.358 8.771 16.5 8.056 16.5 7.333C16.5 6.611 16.358 5.896 16.081 5.229C15.805 4.561 15.4 3.955 14.889 3.444C14.378 2.934 13.772 2.528 13.105 2.252C12.437 1.976 11.722 1.833 11 1.833L7.333 1.833C5.875 1.833 4.476 2.413 3.444 3.444C2.413 4.476 1.833 5.875 1.833 7.333C1.833 10.643 4.09 12.802 9.167 15.107L9.167 12.833Z" fill-rule="NONZERO" fill="#84888e" fill-opacity="1" style="mix-blend-mode:normal"/></g></g></g></svg>