<svg xmlns="http://www.w3.org/2000/svg" xmlns:xlink="http://www.w3.org/1999/xlink" fill="none" version="1.1" width="24" height="24" viewBox="0 0 24 24"><defs></defs><g style="mix-blend-mode:pass-through;opacity: 1;" transform="matrix(1,0,0,1,-0.00000762939453125,0)"><g style="mix-blend-mode:pass-through;opacity: 1;" transform="matrix(1,0,0,1,0,0)"></g><g style="mix-blend-mode:pass-through;opacity: 1;" transform="matrix(1,0,0,1,6.999995231628418,5.370851993560791)"><path d="M0.752005 0.0681482L11.26 6.19815C11.3353 6.24223 11.3978 6.30525 11.4412 6.38095C11.4846 6.45665 11.5074 6.54239 11.5074 6.62965C11.5074 6.71691 11.4846 6.80265 11.4412 6.87834C11.3978 6.95404 11.3353 7.01707 11.26 7.06115L0.752005 13.1911C0.675872 13.2356 0.589347 13.2591 0.501201 13.2593C0.413054 13.2595 0.326417 13.2364 0.250072 13.1924C0.173727 13.1483 0.110387 13.0848 0.0664714 13.0084C0.0225557 12.932 -0.000374559 12.8453 4.62757e-06 12.7571L4.62757e-06 0.500148C-2.14464e-05 0.412171 0.0231662 0.325745 0.0672258 0.249596C0.111285 0.173447 0.174657 0.110271 0.250943 0.0664473C0.327228 0.0226238 0.413726 -0.000295772 0.501702 2.88178e-06C0.589679 0.000301536 0.676018 0.0238078 0.752005 0.0681482Z" fill-rule="NONZERO" fill="#09111e" fill-opacity="1" style="mix-blend-mode:normal"/></g></g></svg>