<svg xmlns="http://www.w3.org/2000/svg" xmlns:xlink="http://www.w3.org/1999/xlink" fill="none" version="1.1" width="24" height="24" viewBox="0 0 24 24"><defs></defs><g style="mix-blend-mode:pass-through;opacity: 1;" transform="matrix(1,0,0,1,0,0)"><g style="mix-blend-mode:pass-through;opacity: 1;" transform="matrix(1,0,0,1,0,0)"></g><g style="mix-blend-mode:pass-through;opacity: 1;" transform="matrix(1,0,0,1,3,3)"><path d="M14.883 15.81C13.25 17.225 11.161 18.003 9 18C4.029 18 0 13.971 0 9C0 4.029 4.029 0 9 0C13.971 0 18 4.029 18 9C18 10.922 17.397 12.704 16.371 14.166L13.5 9L16.2 9C16.2 7.341 15.627 5.732 14.577 4.447C13.527 3.161 12.066 2.278 10.44 1.946C8.814 1.614 7.124 1.854 5.654 2.625C4.185 3.396 3.027 4.651 2.376 6.178C1.726 7.704 1.623 9.409 2.084 11.003C2.545 12.597 3.543 13.982 4.909 14.925C6.274 15.868 7.923 16.31 9.577 16.177C11.232 16.044 12.789 15.344 13.986 14.195L14.883 15.81Z" fill-rule="NONZERO" fill="#09111e" fill-opacity="1" style="mix-blend-mode:normal"/></g></g></svg>