<svg xmlns="http://www.w3.org/2000/svg" xmlns:xlink="http://www.w3.org/1999/xlink" fill="none" version="1.1" width="22" height="22" viewBox="0 0 22 22"><defs></defs><g style="mix-blend-mode:pass-through;opacity: 1;" transform="matrix(1,0,0,1,0,0.00006103515625)"><path d="M0 0L22 0L22 22L0 22L0 0Z" fill-rule="NONZERO" display="none" fill="#ffffff" fill-opacity="1" style="mix-blend-mode:normal"/><g style="mix-blend-mode:pass-through;opacity: 1;" transform="matrix(1,0,0,1,0,0)"><g style="mix-blend-mode:pass-through;opacity: 1;" transform="matrix(1,0,0,1,0,0)"></g><g style="mix-blend-mode:pass-through;opacity: 1;" transform="matrix(1,0,0,1,3.1111667156219482,1.8333333730697632)"><path d="M7.889 13.75C11.246 13.75 14.182 15.194 15.779 17.348L14.09 18.146C12.79 16.606 10.499 15.583 7.889 15.583C5.279 15.583 2.987 16.606 1.688 18.146L0 17.347C1.597 15.193 4.532 13.75 7.889 13.75ZM7.889 0C9.104 0 10.27 0.483 11.13 1.342C11.989 2.202 12.472 3.368 12.472 4.583L12.472 7.333C12.472 8.514 12.016 9.65 11.199 10.503C10.382 11.356 9.268 11.861 8.088 11.912L7.889 11.917C6.673 11.917 5.507 11.434 4.648 10.574C3.788 9.715 3.305 8.549 3.305 7.333L3.305 4.583C3.306 3.402 3.762 2.267 4.578 1.414C5.395 0.561 6.51 0.056 7.69 0.005L7.889 0ZM7.889 1.833C7.187 1.833 6.512 2.101 6.002 2.583C5.492 3.064 5.185 3.722 5.143 4.422L5.139 4.583L5.139 7.333C5.138 8.049 5.417 8.737 5.915 9.251C6.413 9.765 7.093 10.064 7.808 10.085C8.524 10.106 9.219 9.847 9.747 9.363C10.275 8.88 10.593 8.209 10.634 7.495L10.639 7.333L10.639 4.583C10.639 3.854 10.349 3.155 9.833 2.639C9.318 2.123 8.618 1.833 7.889 1.833L7.889 1.833Z" fill-rule="NONZERO" fill="#84888e" fill-opacity="1" style="mix-blend-mode:normal"/></g></g></g></svg>