<svg xmlns="http://www.w3.org/2000/svg" xmlns:xlink="http://www.w3.org/1999/xlink" fill="none" version="1.1" width="22" height="22" viewBox="0 0 22 22"><defs></defs><g style="mix-blend-mode:pass-through;opacity: 1;" transform="matrix(1,0,0,1,0,0.00009989738464355469)"><g style="mix-blend-mode:pass-through;opacity: 1;" transform="matrix(1,0,0,1,0,0)"></g><g style="mix-blend-mode:pass-through;opacity: 1;" transform="matrix(1,0,0,1,2.2916667461395264,1.8333333730697632)"><path d="M16.042 0C16.285 0 16.518 0.097 16.69 0.268C16.862 0.44 16.958 0.674 16.958 0.917L16.958 5.5C16.958 5.743 16.862 5.976 16.69 6.148C16.518 6.32 16.285 6.417 16.042 6.417L11.458 6.417L11.458 18.333C11.458 18.576 11.362 18.81 11.19 18.982C11.018 19.153 10.785 19.25 10.542 19.25L6.875 19.25C6.632 19.25 6.399 19.153 6.227 18.982C6.055 18.81 5.958 18.576 5.958 18.333L5.958 6.417L0.917 6.417C0.674 6.417 0.44 6.32 0.268 6.148C0.097 5.976 0 5.743 0 5.5L0 3.317C0 3.146 0.048 2.98 0.137 2.835C0.227 2.69 0.355 2.573 0.507 2.497L5.5 0L16.042 0ZM11.458 1.833L5.933 1.833L1.833 3.883L1.833 4.583L7.792 4.583L7.792 17.417L9.625 17.417L9.625 4.583L11.458 4.583L11.458 1.833ZM15.125 1.833L13.292 1.833L13.292 4.583L15.125 4.583L15.125 1.833Z" fill-rule="NONZERO" fill="#84888e" fill-opacity="1" style="mix-blend-mode:normal"/></g></g></svg>