<svg xmlns="http://www.w3.org/2000/svg" xmlns:xlink="http://www.w3.org/1999/xlink" fill="none" version="1.1" width="25.2001953125" height="25.2001953125" viewBox="0 0 25.2001953125 25.2001953125"><defs></defs><g style="mix-blend-mode:pass-through;opacity: 1;" transform="matrix(1,0,0,1,-0.00009918212890625,0.0000362396240234375)"><g style="mix-blend-mode:pass-through;opacity: 1;" transform="matrix(1,0,0,1,0,0)"></g><g style="mix-blend-mode:pass-through;opacity: 1;" transform="matrix(1,0,0,1,3.5638427734375,2.100353956222534)"><path d="M9.0363 15.75C12.8814 15.75 16.2446 17.4037 18.0737 19.8712L16.1395 20.7858C14.6506 19.0218 12.0256 17.85 9.0363 17.85C6.04695 17.85 3.42195 19.0218 1.93305 20.7858L0 19.8702C1.8291 17.4027 5.1912 15.75 9.0363 15.75ZM9.0363 0C10.4287 9.32587e-16 11.764 0.553123 12.7486 1.53769C13.7332 2.52226 14.2863 3.85761 14.2863 5.25L14.2863 8.4C14.2862 9.75289 13.7639 11.0535 12.8282 12.0307C11.8925 13.0078 10.6158 13.586 9.26415 13.6447L9.0363 13.65C7.64391 13.65 6.30856 13.0969 5.32399 12.1123C4.33942 11.1277 3.7863 9.79239 3.7863 8.4L3.7863 5.25C3.78638 3.89711 4.30872 2.59648 5.24439 1.61933C6.18007 0.642187 7.45684 0.0639654 8.80845 0.00525012L9.0363 0ZM9.0363 2.1C8.23283 2.09996 7.45971 2.40694 6.87513 2.95815C6.29054 3.50935 5.93869 4.26311 5.89155 5.0652L5.8863 5.25L5.8863 8.4C5.88551 9.21995 6.20447 10.0079 6.77541 10.5964C7.34635 11.1849 8.12426 11.5276 8.94386 11.5517C9.76346 11.5757 10.5601 11.2793 11.1646 10.7253C11.7691 10.1713 12.1337 9.40338 12.181 8.5848L12.1863 8.4L12.1863 5.25C12.1863 4.41457 11.8544 3.61335 11.2637 3.02261C10.6729 2.43187 9.87173 2.1 9.0363 2.1L9.0363 2.1Z" fill-rule="NONZERO" fill="#ffffff" fill-opacity="1" style="mix-blend-mode:normal"/></g></g></svg>