<svg xmlns="http://www.w3.org/2000/svg" xmlns:xlink="http://www.w3.org/1999/xlink" fill="none" version="1.1" width="40" height="40" viewBox="0 0 40 40"><defs><clipPath id="relay_svg_Z6HOM2"><path d="M0 0L24 0L24 24L0 24L0 0Z"/></clipPath></defs><g style="mix-blend-mode:pass-through;opacity: 1;" transform="matrix(1,0,0,1,0,0)"><g style="mix-blend-mode:pass-through;opacity: 1;" transform="matrix(1,0,0,1,0,0)"><path d="M2 0L38 0C39.1046 0 40 0.89543 40 2L40 38C40 39.1046 39.1046 40 38 40L2 40C0.89543 40 0 39.1046 0 38L0 2C0 0.89543 0.89543 0 2 0Z" fill-rule="NONZERO" fill="#155eee" fill-opacity="1" style="mix-blend-mode:normal"/></g><g style="mix-blend-mode:pass-through;opacity: 1;" transform="matrix(1,0,0,1,8,8)"><g clip-path="url(#relay_svg_Z6HOM2)"><rect width="24" height="24" rx="0" display="none" fill="#ffffff" fill-opacity="1" style="mix-blend-mode:normal"/><g style="mix-blend-mode:pass-through;opacity: 1;" transform="matrix(1,0,0,1,0,0)"><g style="mix-blend-mode:pass-through;opacity: 1;" transform="matrix(1,0,0,1,0,0)"></g><g style="mix-blend-mode:pass-through;opacity: 1;" transform="matrix(1,0,0,1,2.9999754428863525,2)"><path d="M6.00002 0.00300002L6.00002 0L16.998 0C17.55 0 18 0.455 18 0.992L18 19.008C17.9998 19.2712 17.895 19.5235 17.7088 19.7095C17.5226 19.8955 17.2702 20 17.007 20L0.993025 20C0.861702 19.9991 0.731845 19.9723 0.61087 19.9212C0.489895 19.8701 0.38017 19.7957 0.287961 19.7022C0.195752 19.6087 0.122864 19.4979 0.0734597 19.3762C0.0240555 19.2545 -0.000897804 19.1243 2.4673e-05 18.993L2.4673e-05 6L6.00002 0.00300002ZM2.83002 6L6.00002 6L6.00002 2.83L2.83002 6ZM8.00002 2L8.00002 7C8.00002 7.26522 7.89467 7.51957 7.70713 7.70711C7.5196 7.89464 7.26524 8 7.00002 8L2.00002 8L2.00002 18L16 18L16 2L8.00002 2Z" fill-rule="NONZERO" fill="#ffffff" fill-opacity="1" style="mix-blend-mode:normal"/></g></g></g></g></g></svg>